<svg width="1029" height="300" viewBox="0 0 1029 300" fill="none" xmlns="http://www.w3.org/2000/svg">
<g clip-path="url(#clip0)">
<mask id="path-1-outside-1" maskUnits="userSpaceOnUse" x="42.0098" y="46.6973" width="914" height="199" fill="black">
<rect fill="white" x="42.0098" y="46.6973" width="914" height="199"/>
<path d="M168.789 94.7412C164.395 72.9313 157.477 62.0264 148.037 62.0264C139.085 62.3519 130.5 64.4271 122.28 68.252C114.142 72.0768 107.021 77.0817 100.918 83.2666C94.8145 89.4515 89.5247 96.4502 85.0488 104.263C75.8529 120.132 71.2549 137.791 71.2549 157.241C71.2549 176.691 76.1377 191.991 85.9033 203.14C95.7503 214.207 108.69 219.741 124.722 219.741C137.336 219.741 150.723 216.364 164.883 209.609C179.043 202.773 192.837 192.886 206.265 179.946V193.496C172.085 225.804 140.062 241.958 110.195 241.958C85.1302 241.958 66.7383 231.094 55.0195 209.365C48.3464 196.751 45.0098 182.469 45.0098 166.519C45.0098 143.651 51.3167 121.556 63.9307 100.234C72.4756 85.6673 84.0316 73.7044 98.5986 64.3457C113.735 54.5801 131.436 49.6973 151.699 49.6973C163.825 49.6973 174.16 53.8883 182.705 62.2705C191.25 70.6527 195.522 80.2962 195.522 91.2012C195.522 95.9212 193.691 99.2171 190.029 101.089C186.367 102.879 177.334 107.721 162.93 115.615C142.747 126.846 131.842 132.461 130.215 132.461C127.041 132.461 125.454 130.793 125.454 127.456C125.454 123.468 132.656 118.341 147.061 112.075C152.513 109.715 157.477 106.948 161.953 103.774C166.51 100.601 168.789 97.5895 168.789 94.7412Z"/>
<path d="M262.539 57.0215L230.557 172.744C236.579 161.595 244.473 152.114 254.238 144.302C264.004 136.408 273.525 132.461 282.803 132.461C290.778 132.461 294.766 137.222 294.766 146.743C294.766 150.161 292.121 159.52 286.831 174.819C281.623 190.037 279.019 200.617 279.019 206.558C279.019 208.999 279.792 210.22 281.338 210.22C282.396 210.22 287.075 206.029 295.376 197.646C303.758 189.183 309.577 183.568 312.832 180.801V194.473C287.197 223.851 270.433 238.54 262.539 238.54C257.331 238.54 254.727 235.448 254.727 229.263C254.727 228.368 254.889 226.821 255.215 224.624C255.54 222.345 256.842 217.34 259.121 209.609C265.713 187.637 269.009 171.768 269.009 162.002C269.009 157.363 266.689 155.044 262.051 155.044C254.889 155.044 247.321 160.293 239.346 170.791C231.452 181.208 226.081 191.746 223.232 202.407C220.465 212.987 218.228 220.514 216.519 224.99C214.81 229.466 212.653 232.803 210.049 235H191.006C192.389 224.909 201.992 186.986 219.814 121.23L228.726 88.0273C232.55 73.623 236.131 64.5085 239.468 60.6836C241.421 58.4049 243.984 57.1436 247.158 56.8994C250.332 56.6553 253.465 56.5332 256.558 56.5332C259.731 56.5332 261.725 56.696 262.539 57.0215Z"/>
<path d="M357.51 146.011L372.158 144.302C374.518 144.302 375.698 144.871 375.698 146.011C375.698 147.15 372.891 153.538 367.275 165.176C354.417 191.543 347.988 207.412 347.988 212.783C347.988 212.865 347.948 213.19 347.866 213.76C347.866 214.248 347.866 214.655 347.866 214.98C347.948 215.225 348.029 215.591 348.11 216.079C348.192 216.567 348.314 216.934 348.477 217.178C349.046 217.91 349.86 218.276 350.918 218.276C353.034 218.276 359.504 213.475 370.327 203.872C381.232 194.188 388.678 186.66 392.666 181.289V194.961C363.613 224.014 344.041 238.54 333.95 238.54C330.369 238.54 327.684 236.953 325.894 233.779C324.103 230.524 323.208 227.35 323.208 224.258C323.208 221.165 323.818 217.625 325.039 213.638C326.26 209.569 327.887 204.93 329.922 199.722C332.038 194.513 333.991 189.793 335.781 185.562C337.572 181.33 339.525 176.772 341.641 171.89C343.838 166.925 345.099 164.036 345.425 163.223C340.786 167.943 335.374 173.11 329.189 178.726C323.086 184.341 317.349 189.915 311.978 195.449V181.777L336.758 156.021C326.829 153.579 320.4 149.754 317.471 144.546C316.82 143.488 316.494 142.552 316.494 141.738C316.494 136.042 318.651 131.037 322.964 126.724C327.277 122.41 333.014 120.254 340.176 120.254C343.838 120.254 345.669 122.41 345.669 126.724C345.669 129.246 344.937 132.013 343.472 135.024C342.007 137.954 340.257 139.948 338.223 141.006C341.966 144.342 348.395 146.011 357.51 146.011Z"/>
<path d="M406.216 210.708C406.216 216.079 407.64 218.765 410.488 218.765C412.279 218.765 417.894 214.126 427.334 204.849C436.855 195.49 444.424 187.718 450.039 181.533V195.205C434.007 210.993 423.265 221.165 417.812 225.723C407.884 233.942 399.38 238.215 392.3 238.54C388.719 238.54 386.034 236.953 384.243 233.779C382.453 230.524 381.558 226.374 381.558 221.328C381.558 216.283 383.836 204.442 388.394 185.806C392.951 167.17 395.962 155.898 397.427 151.992C398.973 148.086 400.234 145.36 401.211 143.813C402.188 142.267 403.408 141.047 404.873 140.151C406.338 139.256 407.599 138.564 408.657 138.076C409.797 137.507 411.506 137.1 413.784 136.855C416.958 136.611 420.864 136.489 425.503 136.489C412.645 177.668 406.216 202.407 406.216 210.708ZM427.212 104.019C421.434 104.019 418.545 101.089 418.545 95.2295C418.545 91.1605 420.05 87.2542 423.062 83.5107C426.154 79.6859 429.775 77.7734 433.926 77.7734C438.076 77.7734 441.169 78.5872 443.203 80.2148C445.238 81.8424 446.255 84.3245 446.255 87.6611C446.255 90.9163 444.302 94.4564 440.396 98.2812C436.571 102.106 432.176 104.019 427.212 104.019Z"/>
<path d="M476.895 234.146C474.128 235.285 471.076 236.302 467.739 237.197C464.484 238.092 461.188 238.54 457.852 238.54C454.596 238.54 451.138 238.215 447.476 237.563C443.895 236.912 440.355 235.854 436.855 234.39C428.88 231.134 424.893 225.519 424.893 217.544C424.893 214.37 426.073 210.749 428.433 206.68C430.793 202.611 433.356 199.03 436.123 195.938C438.971 192.845 442.308 189.305 446.133 185.317C449.958 181.33 452.562 178.481 453.945 176.772C451.748 171.32 450.649 165.379 450.649 158.95C450.649 149.429 453.579 141.576 459.438 135.391C465.298 129.124 474.046 125.991 485.684 125.991C490.811 125.991 493.374 127.415 493.374 130.264C493.374 135.309 491.177 139.256 486.782 142.104C482.469 144.871 477.83 146.255 472.866 146.255C475.633 154.637 480.312 162.165 486.904 168.838C489.346 171.442 491.706 173.924 493.984 176.284C499.274 181.655 501.919 186.294 501.919 190.2C501.919 196.222 499.071 203.14 493.374 210.952L529.629 181.289V194.717C528.652 195.531 526.211 197.646 522.305 201.064C518.48 204.482 515.672 206.965 513.882 208.511C512.173 209.976 509.325 212.295 505.337 215.469C501.431 218.643 498.257 221.084 495.815 222.793C493.455 224.421 490.404 226.414 486.66 228.774C482.917 231.134 479.661 232.925 476.895 234.146ZM459.194 186.294C458.543 187.026 456.061 189.346 451.748 193.252C442.145 201.797 437.344 208.389 437.344 213.027C437.344 217.585 439.704 221.45 444.424 224.624C449.144 227.716 454.23 229.263 459.683 229.263C465.135 229.263 469.53 228.368 472.866 226.577C476.203 224.705 477.871 222.345 477.871 219.497C477.871 216.649 477.505 214.085 476.772 211.807C476.04 209.528 474.86 207.168 473.232 204.727C471.686 202.204 470.303 200.169 469.082 198.623C467.943 196.995 466.193 194.798 463.833 192.031C461.473 189.183 459.927 187.271 459.194 186.294Z"/>
<path d="M533.291 145.278C532.152 145.278 531.175 145.278 530.361 145.278C529.629 145.278 528.896 145.278 528.164 145.278C527.432 145.197 526.862 145.116 526.455 145.034C526.048 144.953 525.56 144.831 524.99 144.668C524.502 144.505 524.095 144.302 523.77 144.058C523.444 143.813 523.118 143.529 522.793 143.203C522.223 142.552 521.938 141.698 521.938 140.64C521.938 139.5 521.979 138.768 522.061 138.442C522.386 137.629 523.851 137.059 526.455 136.733L536.709 135.757C540.534 123.062 543.219 115.005 544.766 111.587C546.312 108.088 547.777 104.954 549.16 102.188C550.625 99.4206 552.008 97.264 553.311 95.7178C554.694 94.1715 556.281 92.5033 558.071 90.7129C559.862 88.9225 561.733 87.5798 563.687 86.6846C568.325 84.5687 573.086 83.5107 577.969 83.5107L578.457 83.999C578.457 84.3245 577.399 87.4984 575.283 93.5205C568.285 113.54 563.605 127.619 561.245 135.757L598.477 134.048L595.791 138.442C593.757 142.186 581.59 144.058 559.292 144.058C559.211 144.058 557.949 148.574 555.508 157.607C548.184 184.544 544.521 200.861 544.521 206.558C544.521 212.336 545.173 215.672 546.475 216.567C547.777 217.381 549.119 217.788 550.503 217.788C554.897 217.788 570.4 205.174 597.012 179.946V193.74C594.245 196.263 590.42 199.803 585.537 204.36C580.654 208.918 576.789 212.498 573.94 215.103C571.174 217.625 567.674 220.596 563.442 224.014C559.292 227.432 555.752 230.036 552.822 231.826C545.335 236.302 538.743 238.54 533.047 238.54C523.363 238.54 518.521 231.785 518.521 218.276C518.521 210.871 519.66 202.163 521.938 192.153C524.299 182.062 526.292 173.843 527.92 167.495C529.548 161.066 531.338 153.66 533.291 145.278Z"/>
<path d="M705.654 238.784C700.853 238.784 698.452 235.203 698.452 228.042C698.452 218.521 701.26 207.534 706.875 195.083C712.572 182.55 715.42 172.174 715.42 163.955C715.42 161.758 714.647 159.723 713.101 157.852C711.554 155.98 709.194 155.044 706.021 155.044C702.928 155.044 699.225 157.323 694.912 161.88C690.599 166.437 686.733 171.89 683.315 178.237C679.897 184.504 676.52 191.624 673.184 199.6C668.057 212.214 663.947 224.014 660.854 235H637.417C637.417 224.339 640.754 208.145 647.427 186.416C651.414 173.477 653.408 165.583 653.408 162.734C653.408 159.805 652.839 157.729 651.699 156.509C650.56 155.207 649.421 154.556 648.281 154.556C647.142 154.556 646.084 154.718 645.107 155.044C639.818 157.485 634.569 162.287 629.36 169.448C624.233 176.528 619.798 184.463 616.055 193.252C609.056 209.528 604.092 223.444 601.162 235H577.847C578.498 224.502 581.305 208.104 586.27 185.806C591.315 163.426 595.872 148.981 599.941 142.471C601.406 139.867 603.848 138.239 607.266 137.588C610.765 136.855 616.706 136.489 625.088 136.489C623.949 142.186 621.589 150.446 618.008 161.27C614.508 172.093 612.393 178.766 611.66 181.289C630.133 148.9 648.566 132.705 666.958 132.705C670.132 132.705 672.492 134.495 674.038 138.076C675.584 141.576 676.357 146.133 676.357 151.748C676.357 157.282 674.201 167.129 669.888 181.289C675.666 169.977 683.438 159.276 693.203 149.185C698.086 144.22 703.376 140.192 709.072 137.1C714.769 134.007 720.221 132.461 725.43 132.461C734.544 132.461 739.102 138.727 739.102 151.26C739.102 162.816 735.928 177.952 729.58 196.67C727.79 201.878 726.895 205.337 726.895 207.046C726.895 208.674 727.261 209.487 727.993 209.487C728.807 209.487 729.661 209.284 730.557 208.877C731.452 208.389 732.51 207.656 733.73 206.68C735.033 205.622 736.294 204.564 737.515 203.506C738.735 202.367 740.322 200.861 742.275 198.989C744.229 197.036 745.978 195.327 747.524 193.862C749.071 192.316 751.105 190.282 753.628 187.759L760.098 181.289V194.961C749.925 205.459 739.305 215.387 728.237 224.746C717.17 234.105 709.642 238.784 705.654 238.784Z"/>
<path d="M763.76 238.54C753.994 238.54 747.972 231.663 745.693 217.91C745.205 214.574 744.961 211.115 744.961 207.534C744.961 198.664 747.158 189.712 751.553 180.679C755.947 171.646 761.725 163.589 768.887 156.509C776.13 149.429 784.756 143.651 794.766 139.175C804.857 134.699 815.151 132.461 825.649 132.461C830.776 132.461 837.612 133.804 846.157 136.489C846.076 137.059 845.262 140.802 843.716 147.72C842.17 154.556 840.623 161.554 839.077 168.716C834.845 188.328 832.729 200.495 832.729 205.215C832.729 209.935 833.95 212.295 836.392 212.295C841.763 212.295 854.214 201.96 873.745 181.289V194.961C861.375 207.738 849.575 218.195 838.345 226.333C827.196 234.471 819.749 238.54 816.006 238.54C809.821 238.54 806.729 233.21 806.729 222.549C806.729 219.049 807.054 215.103 807.705 210.708C801.846 218.358 795.01 224.909 787.197 230.361C779.466 235.814 771.654 238.54 763.76 238.54ZM770.962 200.698C770.962 212.905 774.95 219.009 782.925 219.009C786.343 219.009 790.534 217.218 795.498 213.638C800.544 210.057 805.101 206.11 809.17 201.797L823.208 141.738C814.419 141.738 805.915 144.871 797.695 151.138C789.476 157.404 782.965 165.094 778.164 174.209C773.363 183.324 770.962 192.153 770.962 200.698Z"/>
<path d="M900.234 234.146C897.467 235.285 894.416 236.302 891.079 237.197C887.824 238.092 884.528 238.54 881.191 238.54C877.936 238.54 874.478 238.215 870.815 237.563C867.235 236.912 863.695 235.854 860.195 234.39C852.22 231.134 848.232 225.519 848.232 217.544C848.232 214.37 849.412 210.749 851.772 206.68C854.132 202.611 856.696 199.03 859.463 195.938C862.311 192.845 865.648 189.305 869.473 185.317C873.298 181.33 875.902 178.481 877.285 176.772C875.088 171.32 873.989 165.379 873.989 158.95C873.989 149.429 876.919 141.576 882.778 135.391C888.638 129.124 897.386 125.991 909.023 125.991C914.15 125.991 916.714 127.415 916.714 130.264C916.714 135.309 914.517 139.256 910.122 142.104C905.809 144.871 901.17 146.255 896.206 146.255C898.973 154.637 903.652 162.165 910.244 168.838C912.686 171.442 915.046 173.924 917.324 176.284C922.614 181.655 925.259 186.294 925.259 190.2C925.259 196.222 922.41 203.14 916.714 210.952L952.969 181.289V194.717C951.992 195.531 949.551 197.646 945.645 201.064C941.82 204.482 939.012 206.965 937.222 208.511C935.513 209.976 932.664 212.295 928.677 215.469C924.771 218.643 921.597 221.084 919.155 222.793C916.795 224.421 913.743 226.414 910 228.774C906.257 231.134 903.001 232.925 900.234 234.146ZM882.534 186.294C881.883 187.026 879.401 189.346 875.088 193.252C865.485 201.797 860.684 208.389 860.684 213.027C860.684 217.585 863.044 221.45 867.764 224.624C872.484 227.716 877.57 229.263 883.022 229.263C888.475 229.263 892.869 228.368 896.206 226.577C899.543 224.705 901.211 222.345 901.211 219.497C901.211 216.649 900.845 214.085 900.112 211.807C899.38 209.528 898.2 207.168 896.572 204.727C895.026 202.204 893.643 200.169 892.422 198.623C891.283 196.995 889.533 194.798 887.173 192.031C884.813 189.183 883.267 187.271 882.534 186.294Z"/>
</mask>
<path d="M168.789 94.7412C164.395 72.9313 157.477 62.0264 148.037 62.0264C139.085 62.3519 130.5 64.4271 122.28 68.252C114.142 72.0768 107.021 77.0817 100.918 83.2666C94.8145 89.4515 89.5247 96.4502 85.0488 104.263C75.8529 120.132 71.2549 137.791 71.2549 157.241C71.2549 176.691 76.1377 191.991 85.9033 203.14C95.7503 214.207 108.69 219.741 124.722 219.741C137.336 219.741 150.723 216.364 164.883 209.609C179.043 202.773 192.837 192.886 206.265 179.946V193.496C172.085 225.804 140.062 241.958 110.195 241.958C85.1302 241.958 66.7383 231.094 55.0195 209.365C48.3464 196.751 45.0098 182.469 45.0098 166.519C45.0098 143.651 51.3167 121.556 63.9307 100.234C72.4756 85.6673 84.0316 73.7044 98.5986 64.3457C113.735 54.5801 131.436 49.6973 151.699 49.6973C163.825 49.6973 174.16 53.8883 182.705 62.2705C191.25 70.6527 195.522 80.2962 195.522 91.2012C195.522 95.9212 193.691 99.2171 190.029 101.089C186.367 102.879 177.334 107.721 162.93 115.615C142.747 126.846 131.842 132.461 130.215 132.461C127.041 132.461 125.454 130.793 125.454 127.456C125.454 123.468 132.656 118.341 147.061 112.075C152.513 109.715 157.477 106.948 161.953 103.774C166.51 100.601 168.789 97.5895 168.789 94.7412Z" fill="#FF000F"/>
<path d="M262.539 57.0215L230.557 172.744C236.579 161.595 244.473 152.114 254.238 144.302C264.004 136.408 273.525 132.461 282.803 132.461C290.778 132.461 294.766 137.222 294.766 146.743C294.766 150.161 292.121 159.52 286.831 174.819C281.623 190.037 279.019 200.617 279.019 206.558C279.019 208.999 279.792 210.22 281.338 210.22C282.396 210.22 287.075 206.029 295.376 197.646C303.758 189.183 309.577 183.568 312.832 180.801V194.473C287.197 223.851 270.433 238.54 262.539 238.54C257.331 238.54 254.727 235.448 254.727 229.263C254.727 228.368 254.889 226.821 255.215 224.624C255.54 222.345 256.842 217.34 259.121 209.609C265.713 187.637 269.009 171.768 269.009 162.002C269.009 157.363 266.689 155.044 262.051 155.044C254.889 155.044 247.321 160.293 239.346 170.791C231.452 181.208 226.081 191.746 223.232 202.407C220.465 212.987 218.228 220.514 216.519 224.99C214.81 229.466 212.653 232.803 210.049 235H191.006C192.389 224.909 201.992 186.986 219.814 121.23L228.726 88.0273C232.55 73.623 236.131 64.5085 239.468 60.6836C241.421 58.4049 243.984 57.1436 247.158 56.8994C250.332 56.6553 253.465 56.5332 256.558 56.5332C259.731 56.5332 261.725 56.696 262.539 57.0215Z" fill="#FF000F"/>
<path d="M357.51 146.011L372.158 144.302C374.518 144.302 375.698 144.871 375.698 146.011C375.698 147.15 372.891 153.538 367.275 165.176C354.417 191.543 347.988 207.412 347.988 212.783C347.988 212.865 347.948 213.19 347.866 213.76C347.866 214.248 347.866 214.655 347.866 214.98C347.948 215.225 348.029 215.591 348.11 216.079C348.192 216.567 348.314 216.934 348.477 217.178C349.046 217.91 349.86 218.276 350.918 218.276C353.034 218.276 359.504 213.475 370.327 203.872C381.232 194.188 388.678 186.66 392.666 181.289V194.961C363.613 224.014 344.041 238.54 333.95 238.54C330.369 238.54 327.684 236.953 325.894 233.779C324.103 230.524 323.208 227.35 323.208 224.258C323.208 221.165 323.818 217.625 325.039 213.638C326.26 209.569 327.887 204.93 329.922 199.722C332.038 194.513 333.991 189.793 335.781 185.562C337.572 181.33 339.525 176.772 341.641 171.89C343.838 166.925 345.099 164.036 345.425 163.223C340.786 167.943 335.374 173.11 329.189 178.726C323.086 184.341 317.349 189.915 311.978 195.449V181.777L336.758 156.021C326.829 153.579 320.4 149.754 317.471 144.546C316.82 143.488 316.494 142.552 316.494 141.738C316.494 136.042 318.651 131.037 322.964 126.724C327.277 122.41 333.014 120.254 340.176 120.254C343.838 120.254 345.669 122.41 345.669 126.724C345.669 129.246 344.937 132.013 343.472 135.024C342.007 137.954 340.257 139.948 338.223 141.006C341.966 144.342 348.395 146.011 357.51 146.011Z" fill="#FF000F"/>
<path d="M406.216 210.708C406.216 216.079 407.64 218.765 410.488 218.765C412.279 218.765 417.894 214.126 427.334 204.849C436.855 195.49 444.424 187.718 450.039 181.533V195.205C434.007 210.993 423.265 221.165 417.812 225.723C407.884 233.942 399.38 238.215 392.3 238.54C388.719 238.54 386.034 236.953 384.243 233.779C382.453 230.524 381.558 226.374 381.558 221.328C381.558 216.283 383.836 204.442 388.394 185.806C392.951 167.17 395.962 155.898 397.427 151.992C398.973 148.086 400.234 145.36 401.211 143.813C402.188 142.267 403.408 141.047 404.873 140.151C406.338 139.256 407.599 138.564 408.657 138.076C409.797 137.507 411.506 137.1 413.784 136.855C416.958 136.611 420.864 136.489 425.503 136.489C412.645 177.668 406.216 202.407 406.216 210.708ZM427.212 104.019C421.434 104.019 418.545 101.089 418.545 95.2295C418.545 91.1605 420.05 87.2542 423.062 83.5107C426.154 79.6859 429.775 77.7734 433.926 77.7734C438.076 77.7734 441.169 78.5872 443.203 80.2148C445.238 81.8424 446.255 84.3245 446.255 87.6611C446.255 90.9163 444.302 94.4564 440.396 98.2812C436.571 102.106 432.176 104.019 427.212 104.019Z" fill="#FF000F"/>
<path d="M476.895 234.146C474.128 235.285 471.076 236.302 467.739 237.197C464.484 238.092 461.188 238.54 457.852 238.54C454.596 238.54 451.138 238.215 447.476 237.563C443.895 236.912 440.355 235.854 436.855 234.39C428.88 231.134 424.893 225.519 424.893 217.544C424.893 214.37 426.073 210.749 428.433 206.68C430.793 202.611 433.356 199.03 436.123 195.938C438.971 192.845 442.308 189.305 446.133 185.317C449.958 181.33 452.562 178.481 453.945 176.772C451.748 171.32 450.649 165.379 450.649 158.95C450.649 149.429 453.579 141.576 459.438 135.391C465.298 129.124 474.046 125.991 485.684 125.991C490.811 125.991 493.374 127.415 493.374 130.264C493.374 135.309 491.177 139.256 486.782 142.104C482.469 144.871 477.83 146.255 472.866 146.255C475.633 154.637 480.312 162.165 486.904 168.838C489.346 171.442 491.706 173.924 493.984 176.284C499.274 181.655 501.919 186.294 501.919 190.2C501.919 196.222 499.071 203.14 493.374 210.952L529.629 181.289V194.717C528.652 195.531 526.211 197.646 522.305 201.064C518.48 204.482 515.672 206.965 513.882 208.511C512.173 209.976 509.325 212.295 505.337 215.469C501.431 218.643 498.257 221.084 495.815 222.793C493.455 224.421 490.404 226.414 486.66 228.774C482.917 231.134 479.661 232.925 476.895 234.146ZM459.194 186.294C458.543 187.026 456.061 189.346 451.748 193.252C442.145 201.797 437.344 208.389 437.344 213.027C437.344 217.585 439.704 221.45 444.424 224.624C449.144 227.716 454.23 229.263 459.683 229.263C465.135 229.263 469.53 228.368 472.866 226.577C476.203 224.705 477.871 222.345 477.871 219.497C477.871 216.649 477.505 214.085 476.772 211.807C476.04 209.528 474.86 207.168 473.232 204.727C471.686 202.204 470.303 200.169 469.082 198.623C467.943 196.995 466.193 194.798 463.833 192.031C461.473 189.183 459.927 187.271 459.194 186.294Z" fill="#FF000F"/>
<path d="M533.291 145.278C532.152 145.278 531.175 145.278 530.361 145.278C529.629 145.278 528.896 145.278 528.164 145.278C527.432 145.197 526.862 145.116 526.455 145.034C526.048 144.953 525.56 144.831 524.99 144.668C524.502 144.505 524.095 144.302 523.77 144.058C523.444 143.813 523.118 143.529 522.793 143.203C522.223 142.552 521.938 141.698 521.938 140.64C521.938 139.5 521.979 138.768 522.061 138.442C522.386 137.629 523.851 137.059 526.455 136.733L536.709 135.757C540.534 123.062 543.219 115.005 544.766 111.587C546.312 108.088 547.777 104.954 549.16 102.188C550.625 99.4206 552.008 97.264 553.311 95.7178C554.694 94.1715 556.281 92.5033 558.071 90.7129C559.862 88.9225 561.733 87.5798 563.687 86.6846C568.325 84.5687 573.086 83.5107 577.969 83.5107L578.457 83.999C578.457 84.3245 577.399 87.4984 575.283 93.5205C568.285 113.54 563.605 127.619 561.245 135.757L598.477 134.048L595.791 138.442C593.757 142.186 581.59 144.058 559.292 144.058C559.211 144.058 557.949 148.574 555.508 157.607C548.184 184.544 544.521 200.861 544.521 206.558C544.521 212.336 545.173 215.672 546.475 216.567C547.777 217.381 549.119 217.788 550.503 217.788C554.897 217.788 570.4 205.174 597.012 179.946V193.74C594.245 196.263 590.42 199.803 585.537 204.36C580.654 208.918 576.789 212.498 573.94 215.103C571.174 217.625 567.674 220.596 563.442 224.014C559.292 227.432 555.752 230.036 552.822 231.826C545.335 236.302 538.743 238.54 533.047 238.54C523.363 238.54 518.521 231.785 518.521 218.276C518.521 210.871 519.66 202.163 521.938 192.153C524.299 182.062 526.292 173.843 527.92 167.495C529.548 161.066 531.338 153.66 533.291 145.278Z" fill="#FF000F"/>
<path d="M705.654 238.784C700.853 238.784 698.452 235.203 698.452 228.042C698.452 218.521 701.26 207.534 706.875 195.083C712.572 182.55 715.42 172.174 715.42 163.955C715.42 161.758 714.647 159.723 713.101 157.852C711.554 155.98 709.194 155.044 706.021 155.044C702.928 155.044 699.225 157.323 694.912 161.88C690.599 166.437 686.733 171.89 683.315 178.237C679.897 184.504 676.52 191.624 673.184 199.6C668.057 212.214 663.947 224.014 660.854 235H637.417C637.417 224.339 640.754 208.145 647.427 186.416C651.414 173.477 653.408 165.583 653.408 162.734C653.408 159.805 652.839 157.729 651.699 156.509C650.56 155.207 649.421 154.556 648.281 154.556C647.142 154.556 646.084 154.718 645.107 155.044C639.818 157.485 634.569 162.287 629.36 169.448C624.233 176.528 619.798 184.463 616.055 193.252C609.056 209.528 604.092 223.444 601.162 235H577.847C578.498 224.502 581.305 208.104 586.27 185.806C591.315 163.426 595.872 148.981 599.941 142.471C601.406 139.867 603.848 138.239 607.266 137.588C610.765 136.855 616.706 136.489 625.088 136.489C623.949 142.186 621.589 150.446 618.008 161.27C614.508 172.093 612.393 178.766 611.66 181.289C630.133 148.9 648.566 132.705 666.958 132.705C670.132 132.705 672.492 134.495 674.038 138.076C675.584 141.576 676.357 146.133 676.357 151.748C676.357 157.282 674.201 167.129 669.888 181.289C675.666 169.977 683.438 159.276 693.203 149.185C698.086 144.22 703.376 140.192 709.072 137.1C714.769 134.007 720.221 132.461 725.43 132.461C734.544 132.461 739.102 138.727 739.102 151.26C739.102 162.816 735.928 177.952 729.58 196.67C727.79 201.878 726.895 205.337 726.895 207.046C726.895 208.674 727.261 209.487 727.993 209.487C728.807 209.487 729.661 209.284 730.557 208.877C731.452 208.389 732.51 207.656 733.73 206.68C735.033 205.622 736.294 204.564 737.515 203.506C738.735 202.367 740.322 200.861 742.275 198.989C744.229 197.036 745.978 195.327 747.524 193.862C749.071 192.316 751.105 190.282 753.628 187.759L760.098 181.289V194.961C749.925 205.459 739.305 215.387 728.237 224.746C717.17 234.105 709.642 238.784 705.654 238.784Z" fill="#FF000F"/>
<path d="M763.76 238.54C753.994 238.54 747.972 231.663 745.693 217.91C745.205 214.574 744.961 211.115 744.961 207.534C744.961 198.664 747.158 189.712 751.553 180.679C755.947 171.646 761.725 163.589 768.887 156.509C776.13 149.429 784.756 143.651 794.766 139.175C804.857 134.699 815.151 132.461 825.649 132.461C830.776 132.461 837.612 133.804 846.157 136.489C846.076 137.059 845.262 140.802 843.716 147.72C842.17 154.556 840.623 161.554 839.077 168.716C834.845 188.328 832.729 200.495 832.729 205.215C832.729 209.935 833.95 212.295 836.392 212.295C841.763 212.295 854.214 201.96 873.745 181.289V194.961C861.375 207.738 849.575 218.195 838.345 226.333C827.196 234.471 819.749 238.54 816.006 238.54C809.821 238.54 806.729 233.21 806.729 222.549C806.729 219.049 807.054 215.103 807.705 210.708C801.846 218.358 795.01 224.909 787.197 230.361C779.466 235.814 771.654 238.54 763.76 238.54ZM770.962 200.698C770.962 212.905 774.95 219.009 782.925 219.009C786.343 219.009 790.534 217.218 795.498 213.638C800.544 210.057 805.101 206.11 809.17 201.797L823.208 141.738C814.419 141.738 805.915 144.871 797.695 151.138C789.476 157.404 782.965 165.094 778.164 174.209C773.363 183.324 770.962 192.153 770.962 200.698Z" fill="#FF000F"/>
<path d="M900.234 234.146C897.467 235.285 894.416 236.302 891.079 237.197C887.824 238.092 884.528 238.54 881.191 238.54C877.936 238.54 874.478 238.215 870.815 237.563C867.235 236.912 863.695 235.854 860.195 234.39C852.22 231.134 848.232 225.519 848.232 217.544C848.232 214.37 849.412 210.749 851.772 206.68C854.132 202.611 856.696 199.03 859.463 195.938C862.311 192.845 865.648 189.305 869.473 185.317C873.298 181.33 875.902 178.481 877.285 176.772C875.088 171.32 873.989 165.379 873.989 158.95C873.989 149.429 876.919 141.576 882.778 135.391C888.638 129.124 897.386 125.991 909.023 125.991C914.15 125.991 916.714 127.415 916.714 130.264C916.714 135.309 914.517 139.256 910.122 142.104C905.809 144.871 901.17 146.255 896.206 146.255C898.973 154.637 903.652 162.165 910.244 168.838C912.686 171.442 915.046 173.924 917.324 176.284C922.614 181.655 925.259 186.294 925.259 190.2C925.259 196.222 922.41 203.14 916.714 210.952L952.969 181.289V194.717C951.992 195.531 949.551 197.646 945.645 201.064C941.82 204.482 939.012 206.965 937.222 208.511C935.513 209.976 932.664 212.295 928.677 215.469C924.771 218.643 921.597 221.084 919.155 222.793C916.795 224.421 913.743 226.414 910 228.774C906.257 231.134 903.001 232.925 900.234 234.146ZM882.534 186.294C881.883 187.026 879.401 189.346 875.088 193.252C865.485 201.797 860.684 208.389 860.684 213.027C860.684 217.585 863.044 221.45 867.764 224.624C872.484 227.716 877.57 229.263 883.022 229.263C888.475 229.263 892.869 228.368 896.206 226.577C899.543 224.705 901.211 222.345 901.211 219.497C901.211 216.649 900.845 214.085 900.112 211.807C899.38 209.528 898.2 207.168 896.572 204.727C895.026 202.204 893.643 200.169 892.422 198.623C891.283 196.995 889.533 194.798 887.173 192.031C884.813 189.183 883.267 187.271 882.534 186.294Z" fill="#FF000F"/>
<path d="M168.789 94.7412C164.395 72.9313 157.477 62.0264 148.037 62.0264C139.085 62.3519 130.5 64.4271 122.28 68.252C114.142 72.0768 107.021 77.0817 100.918 83.2666C94.8145 89.4515 89.5247 96.4502 85.0488 104.263C75.8529 120.132 71.2549 137.791 71.2549 157.241C71.2549 176.691 76.1377 191.991 85.9033 203.14C95.7503 214.207 108.69 219.741 124.722 219.741C137.336 219.741 150.723 216.364 164.883 209.609C179.043 202.773 192.837 192.886 206.265 179.946V193.496C172.085 225.804 140.062 241.958 110.195 241.958C85.1302 241.958 66.7383 231.094 55.0195 209.365C48.3464 196.751 45.0098 182.469 45.0098 166.519C45.0098 143.651 51.3167 121.556 63.9307 100.234C72.4756 85.6673 84.0316 73.7044 98.5986 64.3457C113.735 54.5801 131.436 49.6973 151.699 49.6973C163.825 49.6973 174.16 53.8883 182.705 62.2705C191.25 70.6527 195.522 80.2962 195.522 91.2012C195.522 95.9212 193.691 99.2171 190.029 101.089C186.367 102.879 177.334 107.721 162.93 115.615C142.747 126.846 131.842 132.461 130.215 132.461C127.041 132.461 125.454 130.793 125.454 127.456C125.454 123.468 132.656 118.341 147.061 112.075C152.513 109.715 157.477 106.948 161.953 103.774C166.51 100.601 168.789 97.5895 168.789 94.7412Z" stroke="white" stroke-width="6" mask="url(#path-1-outside-1)"/>
<path d="M262.539 57.0215L230.557 172.744C236.579 161.595 244.473 152.114 254.238 144.302C264.004 136.408 273.525 132.461 282.803 132.461C290.778 132.461 294.766 137.222 294.766 146.743C294.766 150.161 292.121 159.52 286.831 174.819C281.623 190.037 279.019 200.617 279.019 206.558C279.019 208.999 279.792 210.22 281.338 210.22C282.396 210.22 287.075 206.029 295.376 197.646C303.758 189.183 309.577 183.568 312.832 180.801V194.473C287.197 223.851 270.433 238.54 262.539 238.54C257.331 238.54 254.727 235.448 254.727 229.263C254.727 228.368 254.889 226.821 255.215 224.624C255.54 222.345 256.842 217.34 259.121 209.609C265.713 187.637 269.009 171.768 269.009 162.002C269.009 157.363 266.689 155.044 262.051 155.044C254.889 155.044 247.321 160.293 239.346 170.791C231.452 181.208 226.081 191.746 223.232 202.407C220.465 212.987 218.228 220.514 216.519 224.99C214.81 229.466 212.653 232.803 210.049 235H191.006C192.389 224.909 201.992 186.986 219.814 121.23L228.726 88.0273C232.55 73.623 236.131 64.5085 239.468 60.6836C241.421 58.4049 243.984 57.1436 247.158 56.8994C250.332 56.6553 253.465 56.5332 256.558 56.5332C259.731 56.5332 261.725 56.696 262.539 57.0215Z" stroke="white" stroke-width="6" mask="url(#path-1-outside-1)"/>
<path d="M357.51 146.011L372.158 144.302C374.518 144.302 375.698 144.871 375.698 146.011C375.698 147.15 372.891 153.538 367.275 165.176C354.417 191.543 347.988 207.412 347.988 212.783C347.988 212.865 347.948 213.19 347.866 213.76C347.866 214.248 347.866 214.655 347.866 214.98C347.948 215.225 348.029 215.591 348.11 216.079C348.192 216.567 348.314 216.934 348.477 217.178C349.046 217.91 349.86 218.276 350.918 218.276C353.034 218.276 359.504 213.475 370.327 203.872C381.232 194.188 388.678 186.66 392.666 181.289V194.961C363.613 224.014 344.041 238.54 333.95 238.54C330.369 238.54 327.684 236.953 325.894 233.779C324.103 230.524 323.208 227.35 323.208 224.258C323.208 221.165 323.818 217.625 325.039 213.638C326.26 209.569 327.887 204.93 329.922 199.722C332.038 194.513 333.991 189.793 335.781 185.562C337.572 181.33 339.525 176.772 341.641 171.89C343.838 166.925 345.099 164.036 345.425 163.223C340.786 167.943 335.374 173.11 329.189 178.726C323.086 184.341 317.349 189.915 311.978 195.449V181.777L336.758 156.021C326.829 153.579 320.4 149.754 317.471 144.546C316.82 143.488 316.494 142.552 316.494 141.738C316.494 136.042 318.651 131.037 322.964 126.724C327.277 122.41 333.014 120.254 340.176 120.254C343.838 120.254 345.669 122.41 345.669 126.724C345.669 129.246 344.937 132.013 343.472 135.024C342.007 137.954 340.257 139.948 338.223 141.006C341.966 144.342 348.395 146.011 357.51 146.011Z" stroke="white" stroke-width="6" mask="url(#path-1-outside-1)"/>
<path d="M406.216 210.708C406.216 216.079 407.64 218.765 410.488 218.765C412.279 218.765 417.894 214.126 427.334 204.849C436.855 195.49 444.424 187.718 450.039 181.533V195.205C434.007 210.993 423.265 221.165 417.812 225.723C407.884 233.942 399.38 238.215 392.3 238.54C388.719 238.54 386.034 236.953 384.243 233.779C382.453 230.524 381.558 226.374 381.558 221.328C381.558 216.283 383.836 204.442 388.394 185.806C392.951 167.17 395.962 155.898 397.427 151.992C398.973 148.086 400.234 145.36 401.211 143.813C402.188 142.267 403.408 141.047 404.873 140.151C406.338 139.256 407.599 138.564 408.657 138.076C409.797 137.507 411.506 137.1 413.784 136.855C416.958 136.611 420.864 136.489 425.503 136.489C412.645 177.668 406.216 202.407 406.216 210.708ZM427.212 104.019C421.434 104.019 418.545 101.089 418.545 95.2295C418.545 91.1605 420.05 87.2542 423.062 83.5107C426.154 79.6859 429.775 77.7734 433.926 77.7734C438.076 77.7734 441.169 78.5872 443.203 80.2148C445.238 81.8424 446.255 84.3245 446.255 87.6611C446.255 90.9163 444.302 94.4564 440.396 98.2812C436.571 102.106 432.176 104.019 427.212 104.019Z" stroke="white" stroke-width="6" mask="url(#path-1-outside-1)"/>
<path d="M476.895 234.146C474.128 235.285 471.076 236.302 467.739 237.197C464.484 238.092 461.188 238.54 457.852 238.54C454.596 238.54 451.138 238.215 447.476 237.563C443.895 236.912 440.355 235.854 436.855 234.39C428.88 231.134 424.893 225.519 424.893 217.544C424.893 214.37 426.073 210.749 428.433 206.68C430.793 202.611 433.356 199.03 436.123 195.938C438.971 192.845 442.308 189.305 446.133 185.317C449.958 181.33 452.562 178.481 453.945 176.772C451.748 171.32 450.649 165.379 450.649 158.95C450.649 149.429 453.579 141.576 459.438 135.391C465.298 129.124 474.046 125.991 485.684 125.991C490.811 125.991 493.374 127.415 493.374 130.264C493.374 135.309 491.177 139.256 486.782 142.104C482.469 144.871 477.83 146.255 472.866 146.255C475.633 154.637 480.312 162.165 486.904 168.838C489.346 171.442 491.706 173.924 493.984 176.284C499.274 181.655 501.919 186.294 501.919 190.2C501.919 196.222 499.071 203.14 493.374 210.952L529.629 181.289V194.717C528.652 195.531 526.211 197.646 522.305 201.064C518.48 204.482 515.672 206.965 513.882 208.511C512.173 209.976 509.325 212.295 505.337 215.469C501.431 218.643 498.257 221.084 495.815 222.793C493.455 224.421 490.404 226.414 486.66 228.774C482.917 231.134 479.661 232.925 476.895 234.146ZM459.194 186.294C458.543 187.026 456.061 189.346 451.748 193.252C442.145 201.797 437.344 208.389 437.344 213.027C437.344 217.585 439.704 221.45 444.424 224.624C449.144 227.716 454.23 229.263 459.683 229.263C465.135 229.263 469.53 228.368 472.866 226.577C476.203 224.705 477.871 222.345 477.871 219.497C477.871 216.649 477.505 214.085 476.772 211.807C476.04 209.528 474.86 207.168 473.232 204.727C471.686 202.204 470.303 200.169 469.082 198.623C467.943 196.995 466.193 194.798 463.833 192.031C461.473 189.183 459.927 187.271 459.194 186.294Z" stroke="white" stroke-width="6" mask="url(#path-1-outside-1)"/>
<path d="M533.291 145.278C532.152 145.278 531.175 145.278 530.361 145.278C529.629 145.278 528.896 145.278 528.164 145.278C527.432 145.197 526.862 145.116 526.455 145.034C526.048 144.953 525.56 144.831 524.99 144.668C524.502 144.505 524.095 144.302 523.77 144.058C523.444 143.813 523.118 143.529 522.793 143.203C522.223 142.552 521.938 141.698 521.938 140.64C521.938 139.5 521.979 138.768 522.061 138.442C522.386 137.629 523.851 137.059 526.455 136.733L536.709 135.757C540.534 123.062 543.219 115.005 544.766 111.587C546.312 108.088 547.777 104.954 549.16 102.188C550.625 99.4206 552.008 97.264 553.311 95.7178C554.694 94.1715 556.281 92.5033 558.071 90.7129C559.862 88.9225 561.733 87.5798 563.687 86.6846C568.325 84.5687 573.086 83.5107 577.969 83.5107L578.457 83.999C578.457 84.3245 577.399 87.4984 575.283 93.5205C568.285 113.54 563.605 127.619 561.245 135.757L598.477 134.048L595.791 138.442C593.757 142.186 581.59 144.058 559.292 144.058C559.211 144.058 557.949 148.574 555.508 157.607C548.184 184.544 544.521 200.861 544.521 206.558C544.521 212.336 545.173 215.672 546.475 216.567C547.777 217.381 549.119 217.788 550.503 217.788C554.897 217.788 570.4 205.174 597.012 179.946V193.74C594.245 196.263 590.42 199.803 585.537 204.36C580.654 208.918 576.789 212.498 573.94 215.103C571.174 217.625 567.674 220.596 563.442 224.014C559.292 227.432 555.752 230.036 552.822 231.826C545.335 236.302 538.743 238.54 533.047 238.54C523.363 238.54 518.521 231.785 518.521 218.276C518.521 210.871 519.66 202.163 521.938 192.153C524.299 182.062 526.292 173.843 527.92 167.495C529.548 161.066 531.338 153.66 533.291 145.278Z" stroke="white" stroke-width="6" mask="url(#path-1-outside-1)"/>
<path d="M705.654 238.784C700.853 238.784 698.452 235.203 698.452 228.042C698.452 218.521 701.26 207.534 706.875 195.083C712.572 182.55 715.42 172.174 715.42 163.955C715.42 161.758 714.647 159.723 713.101 157.852C711.554 155.98 709.194 155.044 706.021 155.044C702.928 155.044 699.225 157.323 694.912 161.88C690.599 166.437 686.733 171.89 683.315 178.237C679.897 184.504 676.52 191.624 673.184 199.6C668.057 212.214 663.947 224.014 660.854 235H637.417C637.417 224.339 640.754 208.145 647.427 186.416C651.414 173.477 653.408 165.583 653.408 162.734C653.408 159.805 652.839 157.729 651.699 156.509C650.56 155.207 649.421 154.556 648.281 154.556C647.142 154.556 646.084 154.718 645.107 155.044C639.818 157.485 634.569 162.287 629.36 169.448C624.233 176.528 619.798 184.463 616.055 193.252C609.056 209.528 604.092 223.444 601.162 235H577.847C578.498 224.502 581.305 208.104 586.27 185.806C591.315 163.426 595.872 148.981 599.941 142.471C601.406 139.867 603.848 138.239 607.266 137.588C610.765 136.855 616.706 136.489 625.088 136.489C623.949 142.186 621.589 150.446 618.008 161.27C614.508 172.093 612.393 178.766 611.66 181.289C630.133 148.9 648.566 132.705 666.958 132.705C670.132 132.705 672.492 134.495 674.038 138.076C675.584 141.576 676.357 146.133 676.357 151.748C676.357 157.282 674.201 167.129 669.888 181.289C675.666 169.977 683.438 159.276 693.203 149.185C698.086 144.22 703.376 140.192 709.072 137.1C714.769 134.007 720.221 132.461 725.43 132.461C734.544 132.461 739.102 138.727 739.102 151.26C739.102 162.816 735.928 177.952 729.58 196.67C727.79 201.878 726.895 205.337 726.895 207.046C726.895 208.674 727.261 209.487 727.993 209.487C728.807 209.487 729.661 209.284 730.557 208.877C731.452 208.389 732.51 207.656 733.73 206.68C735.033 205.622 736.294 204.564 737.515 203.506C738.735 202.367 740.322 200.861 742.275 198.989C744.229 197.036 745.978 195.327 747.524 193.862C749.071 192.316 751.105 190.282 753.628 187.759L760.098 181.289V194.961C749.925 205.459 739.305 215.387 728.237 224.746C717.17 234.105 709.642 238.784 705.654 238.784Z" stroke="white" stroke-width="6" mask="url(#path-1-outside-1)"/>
<path d="M763.76 238.54C753.994 238.54 747.972 231.663 745.693 217.91C745.205 214.574 744.961 211.115 744.961 207.534C744.961 198.664 747.158 189.712 751.553 180.679C755.947 171.646 761.725 163.589 768.887 156.509C776.13 149.429 784.756 143.651 794.766 139.175C804.857 134.699 815.151 132.461 825.649 132.461C830.776 132.461 837.612 133.804 846.157 136.489C846.076 137.059 845.262 140.802 843.716 147.72C842.17 154.556 840.623 161.554 839.077 168.716C834.845 188.328 832.729 200.495 832.729 205.215C832.729 209.935 833.95 212.295 836.392 212.295C841.763 212.295 854.214 201.96 873.745 181.289V194.961C861.375 207.738 849.575 218.195 838.345 226.333C827.196 234.471 819.749 238.54 816.006 238.54C809.821 238.54 806.729 233.21 806.729 222.549C806.729 219.049 807.054 215.103 807.705 210.708C801.846 218.358 795.01 224.909 787.197 230.361C779.466 235.814 771.654 238.54 763.76 238.54ZM770.962 200.698C770.962 212.905 774.95 219.009 782.925 219.009C786.343 219.009 790.534 217.218 795.498 213.638C800.544 210.057 805.101 206.11 809.17 201.797L823.208 141.738C814.419 141.738 805.915 144.871 797.695 151.138C789.476 157.404 782.965 165.094 778.164 174.209C773.363 183.324 770.962 192.153 770.962 200.698Z" stroke="white" stroke-width="6" mask="url(#path-1-outside-1)"/>
<path d="M900.234 234.146C897.467 235.285 894.416 236.302 891.079 237.197C887.824 238.092 884.528 238.54 881.191 238.54C877.936 238.54 874.478 238.215 870.815 237.563C867.235 236.912 863.695 235.854 860.195 234.39C852.22 231.134 848.232 225.519 848.232 217.544C848.232 214.37 849.412 210.749 851.772 206.68C854.132 202.611 856.696 199.03 859.463 195.938C862.311 192.845 865.648 189.305 869.473 185.317C873.298 181.33 875.902 178.481 877.285 176.772C875.088 171.32 873.989 165.379 873.989 158.95C873.989 149.429 876.919 141.576 882.778 135.391C888.638 129.124 897.386 125.991 909.023 125.991C914.15 125.991 916.714 127.415 916.714 130.264C916.714 135.309 914.517 139.256 910.122 142.104C905.809 144.871 901.17 146.255 896.206 146.255C898.973 154.637 903.652 162.165 910.244 168.838C912.686 171.442 915.046 173.924 917.324 176.284C922.614 181.655 925.259 186.294 925.259 190.2C925.259 196.222 922.41 203.14 916.714 210.952L952.969 181.289V194.717C951.992 195.531 949.551 197.646 945.645 201.064C941.82 204.482 939.012 206.965 937.222 208.511C935.513 209.976 932.664 212.295 928.677 215.469C924.771 218.643 921.597 221.084 919.155 222.793C916.795 224.421 913.743 226.414 910 228.774C906.257 231.134 903.001 232.925 900.234 234.146ZM882.534 186.294C881.883 187.026 879.401 189.346 875.088 193.252C865.485 201.797 860.684 208.389 860.684 213.027C860.684 217.585 863.044 221.45 867.764 224.624C872.484 227.716 877.57 229.263 883.022 229.263C888.475 229.263 892.869 228.368 896.206 226.577C899.543 224.705 901.211 222.345 901.211 219.497C901.211 216.649 900.845 214.085 900.112 211.807C899.38 209.528 898.2 207.168 896.572 204.727C895.026 202.204 893.643 200.169 892.422 198.623C891.283 196.995 889.533 194.798 887.173 192.031C884.813 189.183 883.267 187.271 882.534 186.294Z" stroke="white" stroke-width="6" mask="url(#path-1-outside-1)"/>
</g>
<defs>
<clipPath id="clip0">
<rect width="1029" height="300" fill="white"/>
</clipPath>
</defs>
</svg>
