<svg width="567" height="141" viewBox="0 0 567 141" fill="none" xmlns="http://www.w3.org/2000/svg">
<mask id="path-1-outside-1" maskUnits="userSpaceOnUse" x="30" y="17.7143" width="520" height="107" fill="black">
<rect fill="white" x="30" y="17.7143" width="520" height="107"/>
<path d="M207.367 42.9531C206.169 42.9531 205.036 44.0729 203.969 46.3125C202.745 48.9688 201.82 51.4167 201.195 53.6563C200.596 55.8698 200.128 57.6146 199.789 58.8906C199.451 60.1406 199.073 61.7552 198.656 63.7344C197.51 68.9427 196.924 71.6901 196.898 71.9766C196.872 72.263 196.833 72.4974 196.781 72.6797C196.755 72.836 196.729 72.9792 196.703 73.1094C197.224 72.2761 198.253 70.7266 199.789 68.461C201.352 66.1693 202.589 64.2813 203.5 62.7969C204.438 61.3125 205.479 59.5417 206.625 57.4844C208.917 53.4219 210.062 49.9844 210.062 47.1719C210.062 44.3594 209.164 42.9531 207.367 42.9531ZM208.461 78.8125V83.1875C203.669 88.3177 200.167 90.8828 197.953 90.8828C195.766 90.8828 194.372 90.0755 193.773 88.461C193.773 88.8776 193.148 92.224 191.898 98.5C190.648 104.776 189.906 108.318 189.672 109.125H183.109C184.151 101.417 185.974 91.8203 188.578 80.336C191.182 68.8255 193.734 58.5521 196.234 49.5156C196.938 46.9896 198.852 44.5677 201.977 42.25C205.128 39.9063 208.253 38.7344 211.352 38.7344C213.591 38.7344 214.802 40.0755 214.984 42.7578C215.01 43.1485 215.023 43.6432 215.023 44.2422C215.023 47.3412 214.32 50.6094 212.914 54.0469C211.534 57.4583 209.854 60.5833 207.875 63.4219C205.896 66.2344 203.917 68.8646 201.938 71.3125C199.958 73.7344 198.266 75.8568 196.859 77.6797C195.479 79.5026 194.789 80.9349 194.789 81.9766C194.789 82.9922 195.193 84.0339 196 85.1016C196.807 86.1693 197.667 86.7031 198.578 86.7031C199.49 86.7031 201.078 85.7396 203.344 83.8125C205.635 81.8594 207.341 80.1927 208.461 78.8125Z"/>
<path d="M222.953 67.5235L227.641 66.9766C228.396 66.9766 228.773 67.1589 228.773 67.5235C228.773 67.888 227.875 69.9323 226.078 73.6563C221.964 82.0938 219.906 87.1719 219.906 88.8906C219.906 88.9167 219.893 89.0208 219.867 89.2031C219.867 89.3594 219.867 89.4896 219.867 89.5938C219.893 89.6719 219.919 89.7891 219.945 89.9453C219.971 90.1016 220.01 90.2188 220.062 90.2969C220.245 90.5313 220.505 90.6485 220.844 90.6485C221.521 90.6485 223.591 89.112 227.055 86.0391C230.544 82.9401 232.927 80.5313 234.203 78.8125V83.1875C224.906 92.4844 218.643 97.1328 215.414 97.1328C214.268 97.1328 213.409 96.625 212.836 95.6094C212.263 94.5677 211.977 93.5521 211.977 92.5625C211.977 91.5729 212.172 90.4401 212.562 89.1641C212.953 87.862 213.474 86.3776 214.125 84.711C214.802 83.0443 215.427 81.5339 216 80.1797C216.573 78.8255 217.198 77.3672 217.875 75.8047C218.578 74.2162 218.982 73.2917 219.086 73.0313C217.602 74.5417 215.87 76.1953 213.891 77.9922C211.938 79.7891 210.102 81.5729 208.383 83.3438V78.9688L216.312 70.7266C213.135 69.9453 211.078 68.7214 210.141 67.0547C209.932 66.7162 209.828 66.4167 209.828 66.1563C209.828 64.3333 210.518 62.7318 211.898 61.3516C213.279 59.9714 215.115 59.2813 217.406 59.2813C218.578 59.2813 219.164 59.9714 219.164 61.3516C219.164 62.1589 218.93 63.0443 218.461 64.0078C217.992 64.9453 217.432 65.5833 216.781 65.9219C217.979 66.9896 220.036 67.5235 222.953 67.5235Z"/>
<path d="M256.234 63.6953C256.234 64.4505 255.948 65.0104 255.375 65.375C250.193 65.375 246.234 66.8594 243.5 69.8281C240.948 72.6406 239.672 75.8047 239.672 79.3203C239.672 82.8099 240.44 85.5964 241.977 87.6797C243.539 89.763 245.44 90.8047 247.68 90.8047C249.919 90.8047 252.081 89.6328 254.164 87.2891C252.211 86.0651 250.701 84.4505 249.633 82.4453C248.591 80.4401 248.07 78.4089 248.07 76.3516C248.07 74.2682 248.695 72.5886 249.945 71.3125C251.195 70.0104 253.005 69.3594 255.375 69.3594C257.745 69.3594 259.464 69.9974 260.531 71.2735C261.625 72.5495 262.172 74.112 262.172 75.961C262.172 79.763 260.961 83.1354 258.539 86.0781C259.19 86.3386 259.75 86.4688 260.219 86.4688C260.688 86.4688 261.169 86.3646 261.664 86.1563C262.185 85.9219 262.771 85.5313 263.422 84.9844C264.073 84.4115 264.646 83.8776 265.141 83.3828C265.635 82.888 266.352 82.1458 267.289 81.1563C268.227 80.1667 269.021 79.3594 269.672 78.7344V83.0313C267.51 85.3229 265.753 86.9505 264.398 87.9141C263.07 88.8776 261.755 89.3594 260.453 89.3594C259.177 89.3594 258.005 89.1771 256.938 88.8125C254.932 91.2604 252.549 93.2656 249.789 94.8281C247.055 96.3646 244.216 97.1328 241.273 97.1328C237.055 97.1328 234.047 95.1406 232.25 91.1563C231.234 88.9167 230.727 86.4037 230.727 83.6172C230.727 77.2891 232.966 72.3021 237.445 68.6563C241.951 65.0104 247.927 63.1875 255.375 63.1875C255.896 63.1875 256.182 63.3568 256.234 63.6953ZM258.461 76.7031C258.461 74.3073 257.393 73.1094 255.258 73.1094C253.148 73.1094 252.094 74.3724 252.094 76.8985C252.094 78.2266 252.445 79.6068 253.148 81.0391C253.878 82.4453 254.854 83.5651 256.078 84.3985C256.599 83.5391 257.12 82.3542 257.641 80.8438C258.188 79.3073 258.461 77.9271 258.461 76.7031Z"/>
<path d="M304.906 97.211C303.37 97.211 302.602 96.0651 302.602 93.7735C302.602 90.7266 303.5 87.211 305.297 83.2266C307.12 79.2162 308.031 75.8958 308.031 73.2656C308.031 72.5625 307.784 71.9115 307.289 71.3125C306.794 70.7136 306.039 70.4141 305.023 70.4141C304.034 70.4141 302.849 71.1432 301.469 72.6016C300.089 74.0599 298.852 75.8047 297.758 77.836C296.664 79.8412 295.583 82.1198 294.516 84.6719C292.875 88.7083 291.56 92.4844 290.57 96H283.07C283.07 92.5886 284.138 87.4063 286.273 80.4531C287.549 76.3125 288.188 73.7865 288.188 72.875C288.188 71.9375 288.005 71.2735 287.641 70.8828C287.276 70.4662 286.911 70.2578 286.547 70.2578C286.182 70.2578 285.844 70.3099 285.531 70.4141C283.839 71.1953 282.159 72.7318 280.492 75.0235C278.852 77.2891 277.432 79.8281 276.234 82.6406C273.995 87.849 272.406 92.3021 271.469 96H264.008C264.216 92.6406 265.115 87.3932 266.703 80.2578C268.318 73.0964 269.776 68.474 271.078 66.3906C271.547 65.5573 272.328 65.0365 273.422 64.8281C274.542 64.5938 276.443 64.4766 279.125 64.4766C278.76 66.2995 278.005 68.9427 276.859 72.4063C275.74 75.8698 275.062 78.0052 274.828 78.8125C280.74 68.4479 286.638 63.2656 292.523 63.2656C293.539 63.2656 294.294 63.8386 294.789 64.9844C295.284 66.1042 295.531 67.5625 295.531 69.3594C295.531 71.1302 294.841 74.2813 293.461 78.8125C295.31 75.1927 297.797 71.7682 300.922 68.5391C302.484 66.9505 304.177 65.6615 306 64.6719C307.823 63.6823 309.568 63.1875 311.234 63.1875C314.151 63.1875 315.609 65.1927 315.609 69.2031C315.609 72.9011 314.594 77.7448 312.562 83.7344C311.99 85.4011 311.703 86.5078 311.703 87.0547C311.703 87.5755 311.82 87.836 312.055 87.836C312.315 87.836 312.589 87.7708 312.875 87.6406C313.161 87.4844 313.5 87.25 313.891 86.9375C314.307 86.599 314.711 86.2604 315.102 85.9219C315.492 85.5573 316 85.0755 316.625 84.4766C317.25 83.8516 317.81 83.3047 318.305 82.836C318.799 82.3412 319.451 81.6901 320.258 80.8828L322.328 78.8125V83.1875C319.073 86.5469 315.674 89.724 312.133 92.7188C308.591 95.7136 306.182 97.211 304.906 97.211Z"/>
<path d="M355.844 41.7422C353.682 42.6276 351.833 43.9818 350.297 45.8047C348.76 47.6276 347.992 49.4636 347.992 51.3125C347.992 53.1615 348.37 54.7761 349.125 56.1563C349.906 57.5365 350.922 58.8386 352.172 60.0625C353.422 61.2604 354.789 62.4974 356.273 63.7735C357.758 65.0235 359.242 66.3516 360.727 67.7578C362.237 69.138 363.617 70.5833 364.867 72.0938C367.654 75.4531 369.047 79.2031 369.047 83.3438C369.047 85.8698 368.513 88.2266 367.445 90.4141C366.378 92.5755 364.958 94.4115 363.188 95.9219C361.443 97.4323 359.424 98.7344 357.133 99.8281C352.654 101.964 347.849 103.031 342.719 103.031C339.698 103.031 336.911 102.289 334.359 100.805C333.109 100.076 332.094 99.086 331.312 97.836C330.531 96.612 330.141 95.1927 330.141 93.5781C330.141 91.9636 330.766 90.6354 332.016 89.5938C333.266 88.5521 334.802 87.9922 336.625 87.9141L338.305 87.836C338.201 89.2422 338.148 90.4271 338.148 91.3906C338.148 92.3542 338.148 93.0182 338.148 93.3828C338.174 93.7474 338.227 94.2682 338.305 94.9453C338.409 95.6224 338.539 96.1172 338.695 96.4297C338.878 96.7682 339.151 97.1589 339.516 97.6016C339.88 98.0703 340.323 98.4089 340.844 98.6172C342.25 99.1641 343.721 99.4375 345.258 99.4375C346.794 99.4375 348.24 99.2682 349.594 98.9297C350.948 98.5912 352.276 98.0833 353.578 97.4063C354.88 96.7292 356.052 95.9219 357.094 94.9844C359.411 92.9011 360.57 90.388 360.57 87.4453C360.57 84.6589 359.177 81.638 356.391 78.3828C354.984 76.7422 352.823 74.4766 349.906 71.586C347.016 68.6693 344.945 66.4948 343.695 65.0625C340.909 61.8333 339.516 58.9297 339.516 56.3516C339.516 53.7735 340.023 51.4297 341.039 49.3203C342.081 47.211 343.448 45.4141 345.141 43.9297C346.833 42.4193 348.76 41.1042 350.922 39.9844C355.193 37.7969 359.633 36.7031 364.242 36.7031C367.367 36.7031 370.271 37.5104 372.953 39.125C374.333 39.9323 375.453 41.1172 376.312 42.6797C377.172 44.2162 377.602 46.013 377.602 48.0703C377.602 48.5912 375.036 50.349 369.906 53.3438C364.776 56.3386 361.521 58.0833 360.141 58.5781V54.711C360.505 54.5026 361.703 53.9167 363.734 52.9531C368.292 50.8177 370.57 49.2162 370.57 48.1485C370.57 42.9922 367.849 40.4141 362.406 40.4141C360.193 40.4141 358.005 40.8568 355.844 41.7422Z"/>
<path d="M383.695 88.2266C383.695 89.9453 384.151 90.8047 385.062 90.8047C385.635 90.8047 387.432 89.3203 390.453 86.3516C393.5 83.3568 395.922 80.8698 397.719 78.8906V83.2656C392.589 88.3177 389.151 91.5729 387.406 93.0313C384.229 95.6615 381.508 97.0287 379.242 97.1328C378.096 97.1328 377.237 96.625 376.664 95.6094C376.091 94.5677 375.805 93.2396 375.805 91.625C375.805 90.0104 376.534 86.2214 377.992 80.2578C379.451 74.2943 380.414 70.6875 380.883 69.4375C381.378 68.1875 381.781 67.3151 382.094 66.8203C382.406 66.3255 382.797 65.9349 383.266 65.6485C383.734 65.362 384.138 65.1406 384.477 64.9844C384.841 64.8021 385.388 64.6719 386.117 64.5938C387.133 64.5156 388.383 64.4766 389.867 64.4766C385.753 77.6537 383.695 85.5703 383.695 88.2266ZM390.414 54.086C388.565 54.086 387.641 53.1485 387.641 51.2735C387.641 49.9714 388.122 48.7214 389.086 47.5235C390.076 46.2995 391.234 45.6875 392.562 45.6875C393.891 45.6875 394.88 45.9479 395.531 46.4688C396.182 46.9896 396.508 47.7839 396.508 48.8516C396.508 49.8932 395.883 51.0261 394.633 52.25C393.409 53.474 392.003 54.086 390.414 54.086Z"/>
<path d="M432.953 97.211C431.417 97.211 430.648 96.0651 430.648 93.7735C430.648 90.7266 431.547 87.211 433.344 83.2266C435.167 79.2162 436.078 75.8958 436.078 73.2656C436.078 72.5625 435.831 71.9115 435.336 71.3125C434.841 70.7136 434.086 70.4141 433.07 70.4141C432.081 70.4141 430.896 71.1432 429.516 72.6016C428.135 74.0599 426.898 75.8047 425.805 77.836C424.711 79.8412 423.63 82.1198 422.562 84.6719C420.922 88.7083 419.607 92.4844 418.617 96H411.117C411.117 92.5886 412.185 87.4063 414.32 80.4531C415.596 76.3125 416.234 73.7865 416.234 72.875C416.234 71.9375 416.052 71.2735 415.688 70.8828C415.323 70.4662 414.958 70.2578 414.594 70.2578C414.229 70.2578 413.891 70.3099 413.578 70.4141C411.885 71.1953 410.206 72.7318 408.539 75.0235C406.898 77.2891 405.479 79.8281 404.281 82.6406C402.042 87.849 400.453 92.3021 399.516 96H392.055C392.263 92.6406 393.161 87.3932 394.75 80.2578C396.365 73.0964 397.823 68.474 399.125 66.3906C399.594 65.5573 400.375 65.0365 401.469 64.8281C402.589 64.5938 404.49 64.4766 407.172 64.4766C406.807 66.2995 406.052 68.9427 404.906 72.4063C403.786 75.8698 403.109 78.0052 402.875 78.8125C408.786 68.4479 414.685 63.2656 420.57 63.2656C421.586 63.2656 422.341 63.8386 422.836 64.9844C423.331 66.1042 423.578 67.5625 423.578 69.3594C423.578 71.1302 422.888 74.2813 421.508 78.8125C423.357 75.1927 425.844 71.7682 428.969 68.5391C430.531 66.9505 432.224 65.6615 434.047 64.6719C435.87 63.6823 437.615 63.1875 439.281 63.1875C442.198 63.1875 443.656 65.1927 443.656 69.2031C443.656 72.9011 442.641 77.7448 440.609 83.7344C440.036 85.4011 439.75 86.5078 439.75 87.0547C439.75 87.5755 439.867 87.836 440.102 87.836C440.362 87.836 440.635 87.7708 440.922 87.6406C441.208 87.4844 441.547 87.25 441.938 86.9375C442.354 86.599 442.758 86.2604 443.148 85.9219C443.539 85.5573 444.047 85.0755 444.672 84.4766C445.297 83.8516 445.857 83.3047 446.352 82.836C446.846 82.3412 447.497 81.6901 448.305 80.8828L450.375 78.8125V83.1875C447.12 86.5469 443.721 89.724 440.18 92.7188C436.638 95.7136 434.229 97.211 432.953 97.211Z"/>
<path d="M472.406 63.6953C472.406 64.4505 472.12 65.0104 471.547 65.375C466.365 65.375 462.406 66.8594 459.672 69.8281C457.12 72.6406 455.844 75.8047 455.844 79.3203C455.844 82.8099 456.612 85.5964 458.148 87.6797C459.711 89.763 461.612 90.8047 463.852 90.8047C466.091 90.8047 468.253 89.6328 470.336 87.2891C468.383 86.0651 466.872 84.4505 465.805 82.4453C464.763 80.4401 464.242 78.4089 464.242 76.3516C464.242 74.2682 464.867 72.5886 466.117 71.3125C467.367 70.0104 469.177 69.3594 471.547 69.3594C473.917 69.3594 475.635 69.9974 476.703 71.2735C477.797 72.5495 478.344 74.112 478.344 75.961C478.344 79.763 477.133 83.1354 474.711 86.0781C475.362 86.3386 475.922 86.4688 476.391 86.4688C476.859 86.4688 477.341 86.3646 477.836 86.1563C478.357 85.9219 478.943 85.5313 479.594 84.9844C480.245 84.4115 480.818 83.8776 481.312 83.3828C481.807 82.888 482.523 82.1458 483.461 81.1563C484.398 80.1667 485.193 79.3594 485.844 78.7344V83.0313C483.682 85.3229 481.924 86.9505 480.57 87.9141C479.242 88.8776 477.927 89.3594 476.625 89.3594C475.349 89.3594 474.177 89.1771 473.109 88.8125C471.104 91.2604 468.721 93.2656 465.961 94.8281C463.227 96.3646 460.388 97.1328 457.445 97.1328C453.227 97.1328 450.219 95.1406 448.422 91.1563C447.406 88.9167 446.898 86.4037 446.898 83.6172C446.898 77.2891 449.138 72.3021 453.617 68.6563C458.122 65.0104 464.099 63.1875 471.547 63.1875C472.068 63.1875 472.354 63.3568 472.406 63.6953ZM474.633 76.7031C474.633 74.3073 473.565 73.1094 471.43 73.1094C469.32 73.1094 468.266 74.3724 468.266 76.8985C468.266 78.2266 468.617 79.6068 469.32 81.0391C470.049 82.4453 471.026 83.5651 472.25 84.3985C472.771 83.5391 473.292 82.3542 473.812 80.8438C474.359 79.3073 474.633 77.9271 474.633 76.7031Z"/>
<path d="M518.578 78.9688V83.3438C514.438 87.5625 510.766 90.9219 507.562 93.4219C504.385 95.8958 502.263 97.1328 501.195 97.1328C499.242 97.1328 498.266 96.0391 498.266 93.8516C498.266 91.6641 498.747 89.0599 499.711 86.0391C500.701 82.9922 501.677 80.2448 502.641 77.7969C503.63 75.3229 504.125 73.6693 504.125 72.836C504.125 72.0026 503.969 71.3906 503.656 71C503.37 70.6094 503.018 70.4141 502.602 70.4141C501.117 70.4141 499.516 71.4557 497.797 73.5391C496.078 75.5964 494.542 78.0964 493.188 81.0391C490.375 87.1328 488.526 92.1198 487.641 96H480.18C480.206 93.1875 481 88.5261 482.562 82.0156C484.125 75.5052 485.518 70.7005 486.742 67.6016C487.237 66.3516 487.94 65.5182 488.852 65.1016C489.789 64.6849 491.039 64.4766 492.602 64.4766H495.219C493.318 71.0391 491.911 75.7656 491 78.6563C492.745 75.4011 495.271 72.0938 498.578 68.7344C500.193 67.1198 501.951 65.7917 503.852 64.75C505.753 63.7083 507.549 63.1875 509.242 63.1875C511.794 63.1875 513.07 64.711 513.07 67.7578C513.07 69.2162 512.146 72.6797 510.297 78.1485C508.474 83.5912 507.562 86.599 507.562 87.1719C507.562 87.7188 507.719 87.9922 508.031 87.9922C508.37 87.9922 508.799 87.8229 509.32 87.4844C509.867 87.1198 511.417 85.7266 513.969 83.3047C516.521 80.8568 518.057 79.4115 518.578 78.9688Z"/>
<path d="M525.727 73.9297C527.706 76.4818 529.893 77.7578 532.289 77.7578C533.799 77.7578 535.102 77.0156 536.195 75.5313C537.315 74.0469 537.875 72.4844 537.875 70.8438C537.875 69.2031 537.562 68.1094 536.938 67.5625C536.339 66.9896 535.453 66.7031 534.281 66.7031C533.135 66.7031 532.055 66.9636 531.039 67.4844C530.049 68.0052 529.203 68.6563 528.5 69.4375C527.146 70.974 526.221 72.4714 525.727 73.9297ZM547.172 78.8906V83.1875C543.031 87.7448 539.333 91.2083 536.078 93.5781C532.823 95.9479 529.724 97.1328 526.781 97.1328C520.896 97.1328 517.224 95.2188 515.766 91.3906C515.219 89.8802 514.945 88.0573 514.945 85.9219C514.945 82.1198 515.74 78.5 517.328 75.0625C518.917 71.599 521.195 68.7604 524.164 66.5469C527.159 64.3073 530.479 63.1875 534.125 63.1875C540.271 63.1875 543.344 65.4792 543.344 70.0625C543.344 73.0313 542.146 75.6224 539.75 77.836C537.354 80.0235 534.659 81.1172 531.664 81.1172C530.466 81.1172 529.216 80.7656 527.914 80.0625C526.612 79.3594 525.505 78.3047 524.594 76.8985C523.474 79.2422 522.914 81.5339 522.914 83.7735C522.914 89.7891 525.102 92.7969 529.477 92.7969C530.622 92.7969 532.029 92.25 533.695 91.1563C535.388 90.0625 536.872 88.9167 538.148 87.7188C539.451 86.4948 541.091 84.8932 543.07 82.9141C545.049 80.9089 546.417 79.5677 547.172 78.8906Z"/>
<path d="M92 122.571C93.0714 122.571 94.1429 122.17 94.9464 121.366L136.665 81.1875C137.268 80.5848 152 67.125 152 51.0536C152 31.433 140.013 19.7143 119.991 19.7143C108.272 19.7143 97.2902 28.9554 92 34.1786C86.7098 28.9554 75.7277 19.7143 64.0089 19.7143C43.9866 19.7143 32 31.433 32 51.0536C32 67.125 46.7321 80.5848 47.2679 81.0536L89.0536 121.366C89.8571 122.17 90.9286 122.571 92 122.571Z"/>
</mask>
<path d="M207.367 42.9531C206.169 42.9531 205.036 44.0729 203.969 46.3125C202.745 48.9688 201.82 51.4167 201.195 53.6563C200.596 55.8698 200.128 57.6146 199.789 58.8906C199.451 60.1406 199.073 61.7552 198.656 63.7344C197.51 68.9427 196.924 71.6901 196.898 71.9766C196.872 72.263 196.833 72.4974 196.781 72.6797C196.755 72.836 196.729 72.9792 196.703 73.1094C197.224 72.2761 198.253 70.7266 199.789 68.461C201.352 66.1693 202.589 64.2813 203.5 62.7969C204.438 61.3125 205.479 59.5417 206.625 57.4844C208.917 53.4219 210.062 49.9844 210.062 47.1719C210.062 44.3594 209.164 42.9531 207.367 42.9531ZM208.461 78.8125V83.1875C203.669 88.3177 200.167 90.8828 197.953 90.8828C195.766 90.8828 194.372 90.0755 193.773 88.461C193.773 88.8776 193.148 92.224 191.898 98.5C190.648 104.776 189.906 108.318 189.672 109.125H183.109C184.151 101.417 185.974 91.8203 188.578 80.336C191.182 68.8255 193.734 58.5521 196.234 49.5156C196.938 46.9896 198.852 44.5677 201.977 42.25C205.128 39.9063 208.253 38.7344 211.352 38.7344C213.591 38.7344 214.802 40.0755 214.984 42.7578C215.01 43.1485 215.023 43.6432 215.023 44.2422C215.023 47.3412 214.32 50.6094 212.914 54.0469C211.534 57.4583 209.854 60.5833 207.875 63.4219C205.896 66.2344 203.917 68.8646 201.938 71.3125C199.958 73.7344 198.266 75.8568 196.859 77.6797C195.479 79.5026 194.789 80.9349 194.789 81.9766C194.789 82.9922 195.193 84.0339 196 85.1016C196.807 86.1693 197.667 86.7031 198.578 86.7031C199.49 86.7031 201.078 85.7396 203.344 83.8125C205.635 81.8594 207.341 80.1927 208.461 78.8125Z" fill="#FF000F"/>
<path d="M222.953 67.5235L227.641 66.9766C228.396 66.9766 228.773 67.1589 228.773 67.5235C228.773 67.888 227.875 69.9323 226.078 73.6563C221.964 82.0938 219.906 87.1719 219.906 88.8906C219.906 88.9167 219.893 89.0208 219.867 89.2031C219.867 89.3594 219.867 89.4896 219.867 89.5938C219.893 89.6719 219.919 89.7891 219.945 89.9453C219.971 90.1016 220.01 90.2188 220.062 90.2969C220.245 90.5313 220.505 90.6485 220.844 90.6485C221.521 90.6485 223.591 89.112 227.055 86.0391C230.544 82.9401 232.927 80.5313 234.203 78.8125V83.1875C224.906 92.4844 218.643 97.1328 215.414 97.1328C214.268 97.1328 213.409 96.625 212.836 95.6094C212.263 94.5677 211.977 93.5521 211.977 92.5625C211.977 91.5729 212.172 90.4401 212.562 89.1641C212.953 87.862 213.474 86.3776 214.125 84.711C214.802 83.0443 215.427 81.5339 216 80.1797C216.573 78.8255 217.198 77.3672 217.875 75.8047C218.578 74.2162 218.982 73.2917 219.086 73.0313C217.602 74.5417 215.87 76.1953 213.891 77.9922C211.938 79.7891 210.102 81.5729 208.383 83.3438V78.9688L216.312 70.7266C213.135 69.9453 211.078 68.7214 210.141 67.0547C209.932 66.7162 209.828 66.4167 209.828 66.1563C209.828 64.3333 210.518 62.7318 211.898 61.3516C213.279 59.9714 215.115 59.2813 217.406 59.2813C218.578 59.2813 219.164 59.9714 219.164 61.3516C219.164 62.1589 218.93 63.0443 218.461 64.0078C217.992 64.9453 217.432 65.5833 216.781 65.9219C217.979 66.9896 220.036 67.5235 222.953 67.5235Z" fill="#FF000F"/>
<path d="M256.234 63.6953C256.234 64.4505 255.948 65.0104 255.375 65.375C250.193 65.375 246.234 66.8594 243.5 69.8281C240.948 72.6406 239.672 75.8047 239.672 79.3203C239.672 82.8099 240.44 85.5964 241.977 87.6797C243.539 89.763 245.44 90.8047 247.68 90.8047C249.919 90.8047 252.081 89.6328 254.164 87.2891C252.211 86.0651 250.701 84.4505 249.633 82.4453C248.591 80.4401 248.07 78.4089 248.07 76.3516C248.07 74.2682 248.695 72.5886 249.945 71.3125C251.195 70.0104 253.005 69.3594 255.375 69.3594C257.745 69.3594 259.464 69.9974 260.531 71.2735C261.625 72.5495 262.172 74.112 262.172 75.961C262.172 79.763 260.961 83.1354 258.539 86.0781C259.19 86.3386 259.75 86.4688 260.219 86.4688C260.688 86.4688 261.169 86.3646 261.664 86.1563C262.185 85.9219 262.771 85.5313 263.422 84.9844C264.073 84.4115 264.646 83.8776 265.141 83.3828C265.635 82.888 266.352 82.1458 267.289 81.1563C268.227 80.1667 269.021 79.3594 269.672 78.7344V83.0313C267.51 85.3229 265.753 86.9505 264.398 87.9141C263.07 88.8776 261.755 89.3594 260.453 89.3594C259.177 89.3594 258.005 89.1771 256.938 88.8125C254.932 91.2604 252.549 93.2656 249.789 94.8281C247.055 96.3646 244.216 97.1328 241.273 97.1328C237.055 97.1328 234.047 95.1406 232.25 91.1563C231.234 88.9167 230.727 86.4037 230.727 83.6172C230.727 77.2891 232.966 72.3021 237.445 68.6563C241.951 65.0104 247.927 63.1875 255.375 63.1875C255.896 63.1875 256.182 63.3568 256.234 63.6953ZM258.461 76.7031C258.461 74.3073 257.393 73.1094 255.258 73.1094C253.148 73.1094 252.094 74.3724 252.094 76.8985C252.094 78.2266 252.445 79.6068 253.148 81.0391C253.878 82.4453 254.854 83.5651 256.078 84.3985C256.599 83.5391 257.12 82.3542 257.641 80.8438C258.188 79.3073 258.461 77.9271 258.461 76.7031Z" fill="#FF000F"/>
<path d="M304.906 97.211C303.37 97.211 302.602 96.0651 302.602 93.7735C302.602 90.7266 303.5 87.211 305.297 83.2266C307.12 79.2162 308.031 75.8958 308.031 73.2656C308.031 72.5625 307.784 71.9115 307.289 71.3125C306.794 70.7136 306.039 70.4141 305.023 70.4141C304.034 70.4141 302.849 71.1432 301.469 72.6016C300.089 74.0599 298.852 75.8047 297.758 77.836C296.664 79.8412 295.583 82.1198 294.516 84.6719C292.875 88.7083 291.56 92.4844 290.57 96H283.07C283.07 92.5886 284.138 87.4063 286.273 80.4531C287.549 76.3125 288.188 73.7865 288.188 72.875C288.188 71.9375 288.005 71.2735 287.641 70.8828C287.276 70.4662 286.911 70.2578 286.547 70.2578C286.182 70.2578 285.844 70.3099 285.531 70.4141C283.839 71.1953 282.159 72.7318 280.492 75.0235C278.852 77.2891 277.432 79.8281 276.234 82.6406C273.995 87.849 272.406 92.3021 271.469 96H264.008C264.216 92.6406 265.115 87.3932 266.703 80.2578C268.318 73.0964 269.776 68.474 271.078 66.3906C271.547 65.5573 272.328 65.0365 273.422 64.8281C274.542 64.5938 276.443 64.4766 279.125 64.4766C278.76 66.2995 278.005 68.9427 276.859 72.4063C275.74 75.8698 275.062 78.0052 274.828 78.8125C280.74 68.4479 286.638 63.2656 292.523 63.2656C293.539 63.2656 294.294 63.8386 294.789 64.9844C295.284 66.1042 295.531 67.5625 295.531 69.3594C295.531 71.1302 294.841 74.2813 293.461 78.8125C295.31 75.1927 297.797 71.7682 300.922 68.5391C302.484 66.9505 304.177 65.6615 306 64.6719C307.823 63.6823 309.568 63.1875 311.234 63.1875C314.151 63.1875 315.609 65.1927 315.609 69.2031C315.609 72.9011 314.594 77.7448 312.562 83.7344C311.99 85.4011 311.703 86.5078 311.703 87.0547C311.703 87.5755 311.82 87.836 312.055 87.836C312.315 87.836 312.589 87.7708 312.875 87.6406C313.161 87.4844 313.5 87.25 313.891 86.9375C314.307 86.599 314.711 86.2604 315.102 85.9219C315.492 85.5573 316 85.0755 316.625 84.4766C317.25 83.8516 317.81 83.3047 318.305 82.836C318.799 82.3412 319.451 81.6901 320.258 80.8828L322.328 78.8125V83.1875C319.073 86.5469 315.674 89.724 312.133 92.7188C308.591 95.7136 306.182 97.211 304.906 97.211Z" fill="#FF000F"/>
<path d="M355.844 41.7422C353.682 42.6276 351.833 43.9818 350.297 45.8047C348.76 47.6276 347.992 49.4636 347.992 51.3125C347.992 53.1615 348.37 54.7761 349.125 56.1563C349.906 57.5365 350.922 58.8386 352.172 60.0625C353.422 61.2604 354.789 62.4974 356.273 63.7735C357.758 65.0235 359.242 66.3516 360.727 67.7578C362.237 69.138 363.617 70.5833 364.867 72.0938C367.654 75.4531 369.047 79.2031 369.047 83.3438C369.047 85.8698 368.513 88.2266 367.445 90.4141C366.378 92.5755 364.958 94.4115 363.188 95.9219C361.443 97.4323 359.424 98.7344 357.133 99.8281C352.654 101.964 347.849 103.031 342.719 103.031C339.698 103.031 336.911 102.289 334.359 100.805C333.109 100.076 332.094 99.086 331.312 97.836C330.531 96.612 330.141 95.1927 330.141 93.5781C330.141 91.9636 330.766 90.6354 332.016 89.5938C333.266 88.5521 334.802 87.9922 336.625 87.9141L338.305 87.836C338.201 89.2422 338.148 90.4271 338.148 91.3906C338.148 92.3542 338.148 93.0182 338.148 93.3828C338.174 93.7474 338.227 94.2682 338.305 94.9453C338.409 95.6224 338.539 96.1172 338.695 96.4297C338.878 96.7682 339.151 97.1589 339.516 97.6016C339.88 98.0703 340.323 98.4089 340.844 98.6172C342.25 99.1641 343.721 99.4375 345.258 99.4375C346.794 99.4375 348.24 99.2682 349.594 98.9297C350.948 98.5912 352.276 98.0833 353.578 97.4063C354.88 96.7292 356.052 95.9219 357.094 94.9844C359.411 92.9011 360.57 90.388 360.57 87.4453C360.57 84.6589 359.177 81.638 356.391 78.3828C354.984 76.7422 352.823 74.4766 349.906 71.586C347.016 68.6693 344.945 66.4948 343.695 65.0625C340.909 61.8333 339.516 58.9297 339.516 56.3516C339.516 53.7735 340.023 51.4297 341.039 49.3203C342.081 47.211 343.448 45.4141 345.141 43.9297C346.833 42.4193 348.76 41.1042 350.922 39.9844C355.193 37.7969 359.633 36.7031 364.242 36.7031C367.367 36.7031 370.271 37.5104 372.953 39.125C374.333 39.9323 375.453 41.1172 376.312 42.6797C377.172 44.2162 377.602 46.013 377.602 48.0703C377.602 48.5912 375.036 50.349 369.906 53.3438C364.776 56.3386 361.521 58.0833 360.141 58.5781V54.711C360.505 54.5026 361.703 53.9167 363.734 52.9531C368.292 50.8177 370.57 49.2162 370.57 48.1485C370.57 42.9922 367.849 40.4141 362.406 40.4141C360.193 40.4141 358.005 40.8568 355.844 41.7422Z" fill="#FF000F"/>
<path d="M383.695 88.2266C383.695 89.9453 384.151 90.8047 385.062 90.8047C385.635 90.8047 387.432 89.3203 390.453 86.3516C393.5 83.3568 395.922 80.8698 397.719 78.8906V83.2656C392.589 88.3177 389.151 91.5729 387.406 93.0313C384.229 95.6615 381.508 97.0287 379.242 97.1328C378.096 97.1328 377.237 96.625 376.664 95.6094C376.091 94.5677 375.805 93.2396 375.805 91.625C375.805 90.0104 376.534 86.2214 377.992 80.2578C379.451 74.2943 380.414 70.6875 380.883 69.4375C381.378 68.1875 381.781 67.3151 382.094 66.8203C382.406 66.3255 382.797 65.9349 383.266 65.6485C383.734 65.362 384.138 65.1406 384.477 64.9844C384.841 64.8021 385.388 64.6719 386.117 64.5938C387.133 64.5156 388.383 64.4766 389.867 64.4766C385.753 77.6537 383.695 85.5703 383.695 88.2266ZM390.414 54.086C388.565 54.086 387.641 53.1485 387.641 51.2735C387.641 49.9714 388.122 48.7214 389.086 47.5235C390.076 46.2995 391.234 45.6875 392.562 45.6875C393.891 45.6875 394.88 45.9479 395.531 46.4688C396.182 46.9896 396.508 47.7839 396.508 48.8516C396.508 49.8932 395.883 51.0261 394.633 52.25C393.409 53.474 392.003 54.086 390.414 54.086Z" fill="#FF000F"/>
<path d="M432.953 97.211C431.417 97.211 430.648 96.0651 430.648 93.7735C430.648 90.7266 431.547 87.211 433.344 83.2266C435.167 79.2162 436.078 75.8958 436.078 73.2656C436.078 72.5625 435.831 71.9115 435.336 71.3125C434.841 70.7136 434.086 70.4141 433.07 70.4141C432.081 70.4141 430.896 71.1432 429.516 72.6016C428.135 74.0599 426.898 75.8047 425.805 77.836C424.711 79.8412 423.63 82.1198 422.562 84.6719C420.922 88.7083 419.607 92.4844 418.617 96H411.117C411.117 92.5886 412.185 87.4063 414.32 80.4531C415.596 76.3125 416.234 73.7865 416.234 72.875C416.234 71.9375 416.052 71.2735 415.688 70.8828C415.323 70.4662 414.958 70.2578 414.594 70.2578C414.229 70.2578 413.891 70.3099 413.578 70.4141C411.885 71.1953 410.206 72.7318 408.539 75.0235C406.898 77.2891 405.479 79.8281 404.281 82.6406C402.042 87.849 400.453 92.3021 399.516 96H392.055C392.263 92.6406 393.161 87.3932 394.75 80.2578C396.365 73.0964 397.823 68.474 399.125 66.3906C399.594 65.5573 400.375 65.0365 401.469 64.8281C402.589 64.5938 404.49 64.4766 407.172 64.4766C406.807 66.2995 406.052 68.9427 404.906 72.4063C403.786 75.8698 403.109 78.0052 402.875 78.8125C408.786 68.4479 414.685 63.2656 420.57 63.2656C421.586 63.2656 422.341 63.8386 422.836 64.9844C423.331 66.1042 423.578 67.5625 423.578 69.3594C423.578 71.1302 422.888 74.2813 421.508 78.8125C423.357 75.1927 425.844 71.7682 428.969 68.5391C430.531 66.9505 432.224 65.6615 434.047 64.6719C435.87 63.6823 437.615 63.1875 439.281 63.1875C442.198 63.1875 443.656 65.1927 443.656 69.2031C443.656 72.9011 442.641 77.7448 440.609 83.7344C440.036 85.4011 439.75 86.5078 439.75 87.0547C439.75 87.5755 439.867 87.836 440.102 87.836C440.362 87.836 440.635 87.7708 440.922 87.6406C441.208 87.4844 441.547 87.25 441.938 86.9375C442.354 86.599 442.758 86.2604 443.148 85.9219C443.539 85.5573 444.047 85.0755 444.672 84.4766C445.297 83.8516 445.857 83.3047 446.352 82.836C446.846 82.3412 447.497 81.6901 448.305 80.8828L450.375 78.8125V83.1875C447.12 86.5469 443.721 89.724 440.18 92.7188C436.638 95.7136 434.229 97.211 432.953 97.211Z" fill="#FF000F"/>
<path d="M472.406 63.6953C472.406 64.4505 472.12 65.0104 471.547 65.375C466.365 65.375 462.406 66.8594 459.672 69.8281C457.12 72.6406 455.844 75.8047 455.844 79.3203C455.844 82.8099 456.612 85.5964 458.148 87.6797C459.711 89.763 461.612 90.8047 463.852 90.8047C466.091 90.8047 468.253 89.6328 470.336 87.2891C468.383 86.0651 466.872 84.4505 465.805 82.4453C464.763 80.4401 464.242 78.4089 464.242 76.3516C464.242 74.2682 464.867 72.5886 466.117 71.3125C467.367 70.0104 469.177 69.3594 471.547 69.3594C473.917 69.3594 475.635 69.9974 476.703 71.2735C477.797 72.5495 478.344 74.112 478.344 75.961C478.344 79.763 477.133 83.1354 474.711 86.0781C475.362 86.3386 475.922 86.4688 476.391 86.4688C476.859 86.4688 477.341 86.3646 477.836 86.1563C478.357 85.9219 478.943 85.5313 479.594 84.9844C480.245 84.4115 480.818 83.8776 481.312 83.3828C481.807 82.888 482.523 82.1458 483.461 81.1563C484.398 80.1667 485.193 79.3594 485.844 78.7344V83.0313C483.682 85.3229 481.924 86.9505 480.57 87.9141C479.242 88.8776 477.927 89.3594 476.625 89.3594C475.349 89.3594 474.177 89.1771 473.109 88.8125C471.104 91.2604 468.721 93.2656 465.961 94.8281C463.227 96.3646 460.388 97.1328 457.445 97.1328C453.227 97.1328 450.219 95.1406 448.422 91.1563C447.406 88.9167 446.898 86.4037 446.898 83.6172C446.898 77.2891 449.138 72.3021 453.617 68.6563C458.122 65.0104 464.099 63.1875 471.547 63.1875C472.068 63.1875 472.354 63.3568 472.406 63.6953ZM474.633 76.7031C474.633 74.3073 473.565 73.1094 471.43 73.1094C469.32 73.1094 468.266 74.3724 468.266 76.8985C468.266 78.2266 468.617 79.6068 469.32 81.0391C470.049 82.4453 471.026 83.5651 472.25 84.3985C472.771 83.5391 473.292 82.3542 473.812 80.8438C474.359 79.3073 474.633 77.9271 474.633 76.7031Z" fill="#FF000F"/>
<path d="M518.578 78.9688V83.3438C514.438 87.5625 510.766 90.9219 507.562 93.4219C504.385 95.8958 502.263 97.1328 501.195 97.1328C499.242 97.1328 498.266 96.0391 498.266 93.8516C498.266 91.6641 498.747 89.0599 499.711 86.0391C500.701 82.9922 501.677 80.2448 502.641 77.7969C503.63 75.3229 504.125 73.6693 504.125 72.836C504.125 72.0026 503.969 71.3906 503.656 71C503.37 70.6094 503.018 70.4141 502.602 70.4141C501.117 70.4141 499.516 71.4557 497.797 73.5391C496.078 75.5964 494.542 78.0964 493.188 81.0391C490.375 87.1328 488.526 92.1198 487.641 96H480.18C480.206 93.1875 481 88.5261 482.562 82.0156C484.125 75.5052 485.518 70.7005 486.742 67.6016C487.237 66.3516 487.94 65.5182 488.852 65.1016C489.789 64.6849 491.039 64.4766 492.602 64.4766H495.219C493.318 71.0391 491.911 75.7656 491 78.6563C492.745 75.4011 495.271 72.0938 498.578 68.7344C500.193 67.1198 501.951 65.7917 503.852 64.75C505.753 63.7083 507.549 63.1875 509.242 63.1875C511.794 63.1875 513.07 64.711 513.07 67.7578C513.07 69.2162 512.146 72.6797 510.297 78.1485C508.474 83.5912 507.562 86.599 507.562 87.1719C507.562 87.7188 507.719 87.9922 508.031 87.9922C508.37 87.9922 508.799 87.8229 509.32 87.4844C509.867 87.1198 511.417 85.7266 513.969 83.3047C516.521 80.8568 518.057 79.4115 518.578 78.9688Z" fill="#FF000F"/>
<path d="M525.727 73.9297C527.706 76.4818 529.893 77.7578 532.289 77.7578C533.799 77.7578 535.102 77.0156 536.195 75.5313C537.315 74.0469 537.875 72.4844 537.875 70.8438C537.875 69.2031 537.562 68.1094 536.938 67.5625C536.339 66.9896 535.453 66.7031 534.281 66.7031C533.135 66.7031 532.055 66.9636 531.039 67.4844C530.049 68.0052 529.203 68.6563 528.5 69.4375C527.146 70.974 526.221 72.4714 525.727 73.9297ZM547.172 78.8906V83.1875C543.031 87.7448 539.333 91.2083 536.078 93.5781C532.823 95.9479 529.724 97.1328 526.781 97.1328C520.896 97.1328 517.224 95.2188 515.766 91.3906C515.219 89.8802 514.945 88.0573 514.945 85.9219C514.945 82.1198 515.74 78.5 517.328 75.0625C518.917 71.599 521.195 68.7604 524.164 66.5469C527.159 64.3073 530.479 63.1875 534.125 63.1875C540.271 63.1875 543.344 65.4792 543.344 70.0625C543.344 73.0313 542.146 75.6224 539.75 77.836C537.354 80.0235 534.659 81.1172 531.664 81.1172C530.466 81.1172 529.216 80.7656 527.914 80.0625C526.612 79.3594 525.505 78.3047 524.594 76.8985C523.474 79.2422 522.914 81.5339 522.914 83.7735C522.914 89.7891 525.102 92.7969 529.477 92.7969C530.622 92.7969 532.029 92.25 533.695 91.1563C535.388 90.0625 536.872 88.9167 538.148 87.7188C539.451 86.4948 541.091 84.8932 543.07 82.9141C545.049 80.9089 546.417 79.5677 547.172 78.8906Z" fill="#FF000F"/>
<path d="M92 122.571C93.0714 122.571 94.1429 122.17 94.9464 121.366L136.665 81.1875C137.268 80.5848 152 67.125 152 51.0536C152 31.433 140.013 19.7143 119.991 19.7143C108.272 19.7143 97.2902 28.9554 92 34.1786C86.7098 28.9554 75.7277 19.7143 64.0089 19.7143C43.9866 19.7143 32 31.433 32 51.0536C32 67.125 46.7321 80.5848 47.2679 81.0536L89.0536 121.366C89.8571 122.17 90.9286 122.571 92 122.571Z" fill="#FF000F"/>
<path d="M207.367 42.9531C206.169 42.9531 205.036 44.0729 203.969 46.3125C202.745 48.9688 201.82 51.4167 201.195 53.6563C200.596 55.8698 200.128 57.6146 199.789 58.8906C199.451 60.1406 199.073 61.7552 198.656 63.7344C197.51 68.9427 196.924 71.6901 196.898 71.9766C196.872 72.263 196.833 72.4974 196.781 72.6797C196.755 72.836 196.729 72.9792 196.703 73.1094C197.224 72.2761 198.253 70.7266 199.789 68.461C201.352 66.1693 202.589 64.2813 203.5 62.7969C204.438 61.3125 205.479 59.5417 206.625 57.4844C208.917 53.4219 210.062 49.9844 210.062 47.1719C210.062 44.3594 209.164 42.9531 207.367 42.9531ZM208.461 78.8125V83.1875C203.669 88.3177 200.167 90.8828 197.953 90.8828C195.766 90.8828 194.372 90.0755 193.773 88.461C193.773 88.8776 193.148 92.224 191.898 98.5C190.648 104.776 189.906 108.318 189.672 109.125H183.109C184.151 101.417 185.974 91.8203 188.578 80.336C191.182 68.8255 193.734 58.5521 196.234 49.5156C196.938 46.9896 198.852 44.5677 201.977 42.25C205.128 39.9063 208.253 38.7344 211.352 38.7344C213.591 38.7344 214.802 40.0755 214.984 42.7578C215.01 43.1485 215.023 43.6432 215.023 44.2422C215.023 47.3412 214.32 50.6094 212.914 54.0469C211.534 57.4583 209.854 60.5833 207.875 63.4219C205.896 66.2344 203.917 68.8646 201.938 71.3125C199.958 73.7344 198.266 75.8568 196.859 77.6797C195.479 79.5026 194.789 80.9349 194.789 81.9766C194.789 82.9922 195.193 84.0339 196 85.1016C196.807 86.1693 197.667 86.7031 198.578 86.7031C199.49 86.7031 201.078 85.7396 203.344 83.8125C205.635 81.8594 207.341 80.1927 208.461 78.8125Z" stroke="white" stroke-width="4" mask="url(#path-1-outside-1)"/>
<path d="M222.953 67.5235L227.641 66.9766C228.396 66.9766 228.773 67.1589 228.773 67.5235C228.773 67.888 227.875 69.9323 226.078 73.6563C221.964 82.0938 219.906 87.1719 219.906 88.8906C219.906 88.9167 219.893 89.0208 219.867 89.2031C219.867 89.3594 219.867 89.4896 219.867 89.5938C219.893 89.6719 219.919 89.7891 219.945 89.9453C219.971 90.1016 220.01 90.2188 220.062 90.2969C220.245 90.5313 220.505 90.6485 220.844 90.6485C221.521 90.6485 223.591 89.112 227.055 86.0391C230.544 82.9401 232.927 80.5313 234.203 78.8125V83.1875C224.906 92.4844 218.643 97.1328 215.414 97.1328C214.268 97.1328 213.409 96.625 212.836 95.6094C212.263 94.5677 211.977 93.5521 211.977 92.5625C211.977 91.5729 212.172 90.4401 212.562 89.1641C212.953 87.862 213.474 86.3776 214.125 84.711C214.802 83.0443 215.427 81.5339 216 80.1797C216.573 78.8255 217.198 77.3672 217.875 75.8047C218.578 74.2162 218.982 73.2917 219.086 73.0313C217.602 74.5417 215.87 76.1953 213.891 77.9922C211.938 79.7891 210.102 81.5729 208.383 83.3438V78.9688L216.312 70.7266C213.135 69.9453 211.078 68.7214 210.141 67.0547C209.932 66.7162 209.828 66.4167 209.828 66.1563C209.828 64.3333 210.518 62.7318 211.898 61.3516C213.279 59.9714 215.115 59.2813 217.406 59.2813C218.578 59.2813 219.164 59.9714 219.164 61.3516C219.164 62.1589 218.93 63.0443 218.461 64.0078C217.992 64.9453 217.432 65.5833 216.781 65.9219C217.979 66.9896 220.036 67.5235 222.953 67.5235Z" stroke="white" stroke-width="4" mask="url(#path-1-outside-1)"/>
<path d="M256.234 63.6953C256.234 64.4505 255.948 65.0104 255.375 65.375C250.193 65.375 246.234 66.8594 243.5 69.8281C240.948 72.6406 239.672 75.8047 239.672 79.3203C239.672 82.8099 240.44 85.5964 241.977 87.6797C243.539 89.763 245.44 90.8047 247.68 90.8047C249.919 90.8047 252.081 89.6328 254.164 87.2891C252.211 86.0651 250.701 84.4505 249.633 82.4453C248.591 80.4401 248.07 78.4089 248.07 76.3516C248.07 74.2682 248.695 72.5886 249.945 71.3125C251.195 70.0104 253.005 69.3594 255.375 69.3594C257.745 69.3594 259.464 69.9974 260.531 71.2735C261.625 72.5495 262.172 74.112 262.172 75.961C262.172 79.763 260.961 83.1354 258.539 86.0781C259.19 86.3386 259.75 86.4688 260.219 86.4688C260.688 86.4688 261.169 86.3646 261.664 86.1563C262.185 85.9219 262.771 85.5313 263.422 84.9844C264.073 84.4115 264.646 83.8776 265.141 83.3828C265.635 82.888 266.352 82.1458 267.289 81.1563C268.227 80.1667 269.021 79.3594 269.672 78.7344V83.0313C267.51 85.3229 265.753 86.9505 264.398 87.9141C263.07 88.8776 261.755 89.3594 260.453 89.3594C259.177 89.3594 258.005 89.1771 256.938 88.8125C254.932 91.2604 252.549 93.2656 249.789 94.8281C247.055 96.3646 244.216 97.1328 241.273 97.1328C237.055 97.1328 234.047 95.1406 232.25 91.1563C231.234 88.9167 230.727 86.4037 230.727 83.6172C230.727 77.2891 232.966 72.3021 237.445 68.6563C241.951 65.0104 247.927 63.1875 255.375 63.1875C255.896 63.1875 256.182 63.3568 256.234 63.6953ZM258.461 76.7031C258.461 74.3073 257.393 73.1094 255.258 73.1094C253.148 73.1094 252.094 74.3724 252.094 76.8985C252.094 78.2266 252.445 79.6068 253.148 81.0391C253.878 82.4453 254.854 83.5651 256.078 84.3985C256.599 83.5391 257.12 82.3542 257.641 80.8438C258.188 79.3073 258.461 77.9271 258.461 76.7031Z" stroke="white" stroke-width="4" mask="url(#path-1-outside-1)"/>
<path d="M304.906 97.211C303.37 97.211 302.602 96.0651 302.602 93.7735C302.602 90.7266 303.5 87.211 305.297 83.2266C307.12 79.2162 308.031 75.8958 308.031 73.2656C308.031 72.5625 307.784 71.9115 307.289 71.3125C306.794 70.7136 306.039 70.4141 305.023 70.4141C304.034 70.4141 302.849 71.1432 301.469 72.6016C300.089 74.0599 298.852 75.8047 297.758 77.836C296.664 79.8412 295.583 82.1198 294.516 84.6719C292.875 88.7083 291.56 92.4844 290.57 96H283.07C283.07 92.5886 284.138 87.4063 286.273 80.4531C287.549 76.3125 288.188 73.7865 288.188 72.875C288.188 71.9375 288.005 71.2735 287.641 70.8828C287.276 70.4662 286.911 70.2578 286.547 70.2578C286.182 70.2578 285.844 70.3099 285.531 70.4141C283.839 71.1953 282.159 72.7318 280.492 75.0235C278.852 77.2891 277.432 79.8281 276.234 82.6406C273.995 87.849 272.406 92.3021 271.469 96H264.008C264.216 92.6406 265.115 87.3932 266.703 80.2578C268.318 73.0964 269.776 68.474 271.078 66.3906C271.547 65.5573 272.328 65.0365 273.422 64.8281C274.542 64.5938 276.443 64.4766 279.125 64.4766C278.76 66.2995 278.005 68.9427 276.859 72.4063C275.74 75.8698 275.062 78.0052 274.828 78.8125C280.74 68.4479 286.638 63.2656 292.523 63.2656C293.539 63.2656 294.294 63.8386 294.789 64.9844C295.284 66.1042 295.531 67.5625 295.531 69.3594C295.531 71.1302 294.841 74.2813 293.461 78.8125C295.31 75.1927 297.797 71.7682 300.922 68.5391C302.484 66.9505 304.177 65.6615 306 64.6719C307.823 63.6823 309.568 63.1875 311.234 63.1875C314.151 63.1875 315.609 65.1927 315.609 69.2031C315.609 72.9011 314.594 77.7448 312.562 83.7344C311.99 85.4011 311.703 86.5078 311.703 87.0547C311.703 87.5755 311.82 87.836 312.055 87.836C312.315 87.836 312.589 87.7708 312.875 87.6406C313.161 87.4844 313.5 87.25 313.891 86.9375C314.307 86.599 314.711 86.2604 315.102 85.9219C315.492 85.5573 316 85.0755 316.625 84.4766C317.25 83.8516 317.81 83.3047 318.305 82.836C318.799 82.3412 319.451 81.6901 320.258 80.8828L322.328 78.8125V83.1875C319.073 86.5469 315.674 89.724 312.133 92.7188C308.591 95.7136 306.182 97.211 304.906 97.211Z" stroke="white" stroke-width="4" mask="url(#path-1-outside-1)"/>
<path d="M355.844 41.7422C353.682 42.6276 351.833 43.9818 350.297 45.8047C348.76 47.6276 347.992 49.4636 347.992 51.3125C347.992 53.1615 348.37 54.7761 349.125 56.1563C349.906 57.5365 350.922 58.8386 352.172 60.0625C353.422 61.2604 354.789 62.4974 356.273 63.7735C357.758 65.0235 359.242 66.3516 360.727 67.7578C362.237 69.138 363.617 70.5833 364.867 72.0938C367.654 75.4531 369.047 79.2031 369.047 83.3438C369.047 85.8698 368.513 88.2266 367.445 90.4141C366.378 92.5755 364.958 94.4115 363.188 95.9219C361.443 97.4323 359.424 98.7344 357.133 99.8281C352.654 101.964 347.849 103.031 342.719 103.031C339.698 103.031 336.911 102.289 334.359 100.805C333.109 100.076 332.094 99.086 331.312 97.836C330.531 96.612 330.141 95.1927 330.141 93.5781C330.141 91.9636 330.766 90.6354 332.016 89.5938C333.266 88.5521 334.802 87.9922 336.625 87.9141L338.305 87.836C338.201 89.2422 338.148 90.4271 338.148 91.3906C338.148 92.3542 338.148 93.0182 338.148 93.3828C338.174 93.7474 338.227 94.2682 338.305 94.9453C338.409 95.6224 338.539 96.1172 338.695 96.4297C338.878 96.7682 339.151 97.1589 339.516 97.6016C339.88 98.0703 340.323 98.4089 340.844 98.6172C342.25 99.1641 343.721 99.4375 345.258 99.4375C346.794 99.4375 348.24 99.2682 349.594 98.9297C350.948 98.5912 352.276 98.0833 353.578 97.4063C354.88 96.7292 356.052 95.9219 357.094 94.9844C359.411 92.9011 360.57 90.388 360.57 87.4453C360.57 84.6589 359.177 81.638 356.391 78.3828C354.984 76.7422 352.823 74.4766 349.906 71.586C347.016 68.6693 344.945 66.4948 343.695 65.0625C340.909 61.8333 339.516 58.9297 339.516 56.3516C339.516 53.7735 340.023 51.4297 341.039 49.3203C342.081 47.211 343.448 45.4141 345.141 43.9297C346.833 42.4193 348.76 41.1042 350.922 39.9844C355.193 37.7969 359.633 36.7031 364.242 36.7031C367.367 36.7031 370.271 37.5104 372.953 39.125C374.333 39.9323 375.453 41.1172 376.312 42.6797C377.172 44.2162 377.602 46.013 377.602 48.0703C377.602 48.5912 375.036 50.349 369.906 53.3438C364.776 56.3386 361.521 58.0833 360.141 58.5781V54.711C360.505 54.5026 361.703 53.9167 363.734 52.9531C368.292 50.8177 370.57 49.2162 370.57 48.1485C370.57 42.9922 367.849 40.4141 362.406 40.4141C360.193 40.4141 358.005 40.8568 355.844 41.7422Z" stroke="white" stroke-width="4" mask="url(#path-1-outside-1)"/>
<path d="M383.695 88.2266C383.695 89.9453 384.151 90.8047 385.062 90.8047C385.635 90.8047 387.432 89.3203 390.453 86.3516C393.5 83.3568 395.922 80.8698 397.719 78.8906V83.2656C392.589 88.3177 389.151 91.5729 387.406 93.0313C384.229 95.6615 381.508 97.0287 379.242 97.1328C378.096 97.1328 377.237 96.625 376.664 95.6094C376.091 94.5677 375.805 93.2396 375.805 91.625C375.805 90.0104 376.534 86.2214 377.992 80.2578C379.451 74.2943 380.414 70.6875 380.883 69.4375C381.378 68.1875 381.781 67.3151 382.094 66.8203C382.406 66.3255 382.797 65.9349 383.266 65.6485C383.734 65.362 384.138 65.1406 384.477 64.9844C384.841 64.8021 385.388 64.6719 386.117 64.5938C387.133 64.5156 388.383 64.4766 389.867 64.4766C385.753 77.6537 383.695 85.5703 383.695 88.2266ZM390.414 54.086C388.565 54.086 387.641 53.1485 387.641 51.2735C387.641 49.9714 388.122 48.7214 389.086 47.5235C390.076 46.2995 391.234 45.6875 392.562 45.6875C393.891 45.6875 394.88 45.9479 395.531 46.4688C396.182 46.9896 396.508 47.7839 396.508 48.8516C396.508 49.8932 395.883 51.0261 394.633 52.25C393.409 53.474 392.003 54.086 390.414 54.086Z" stroke="white" stroke-width="4" mask="url(#path-1-outside-1)"/>
<path d="M432.953 97.211C431.417 97.211 430.648 96.0651 430.648 93.7735C430.648 90.7266 431.547 87.211 433.344 83.2266C435.167 79.2162 436.078 75.8958 436.078 73.2656C436.078 72.5625 435.831 71.9115 435.336 71.3125C434.841 70.7136 434.086 70.4141 433.07 70.4141C432.081 70.4141 430.896 71.1432 429.516 72.6016C428.135 74.0599 426.898 75.8047 425.805 77.836C424.711 79.8412 423.63 82.1198 422.562 84.6719C420.922 88.7083 419.607 92.4844 418.617 96H411.117C411.117 92.5886 412.185 87.4063 414.32 80.4531C415.596 76.3125 416.234 73.7865 416.234 72.875C416.234 71.9375 416.052 71.2735 415.688 70.8828C415.323 70.4662 414.958 70.2578 414.594 70.2578C414.229 70.2578 413.891 70.3099 413.578 70.4141C411.885 71.1953 410.206 72.7318 408.539 75.0235C406.898 77.2891 405.479 79.8281 404.281 82.6406C402.042 87.849 400.453 92.3021 399.516 96H392.055C392.263 92.6406 393.161 87.3932 394.75 80.2578C396.365 73.0964 397.823 68.474 399.125 66.3906C399.594 65.5573 400.375 65.0365 401.469 64.8281C402.589 64.5938 404.49 64.4766 407.172 64.4766C406.807 66.2995 406.052 68.9427 404.906 72.4063C403.786 75.8698 403.109 78.0052 402.875 78.8125C408.786 68.4479 414.685 63.2656 420.57 63.2656C421.586 63.2656 422.341 63.8386 422.836 64.9844C423.331 66.1042 423.578 67.5625 423.578 69.3594C423.578 71.1302 422.888 74.2813 421.508 78.8125C423.357 75.1927 425.844 71.7682 428.969 68.5391C430.531 66.9505 432.224 65.6615 434.047 64.6719C435.87 63.6823 437.615 63.1875 439.281 63.1875C442.198 63.1875 443.656 65.1927 443.656 69.2031C443.656 72.9011 442.641 77.7448 440.609 83.7344C440.036 85.4011 439.75 86.5078 439.75 87.0547C439.75 87.5755 439.867 87.836 440.102 87.836C440.362 87.836 440.635 87.7708 440.922 87.6406C441.208 87.4844 441.547 87.25 441.938 86.9375C442.354 86.599 442.758 86.2604 443.148 85.9219C443.539 85.5573 444.047 85.0755 444.672 84.4766C445.297 83.8516 445.857 83.3047 446.352 82.836C446.846 82.3412 447.497 81.6901 448.305 80.8828L450.375 78.8125V83.1875C447.12 86.5469 443.721 89.724 440.18 92.7188C436.638 95.7136 434.229 97.211 432.953 97.211Z" stroke="white" stroke-width="4" mask="url(#path-1-outside-1)"/>
<path d="M472.406 63.6953C472.406 64.4505 472.12 65.0104 471.547 65.375C466.365 65.375 462.406 66.8594 459.672 69.8281C457.12 72.6406 455.844 75.8047 455.844 79.3203C455.844 82.8099 456.612 85.5964 458.148 87.6797C459.711 89.763 461.612 90.8047 463.852 90.8047C466.091 90.8047 468.253 89.6328 470.336 87.2891C468.383 86.0651 466.872 84.4505 465.805 82.4453C464.763 80.4401 464.242 78.4089 464.242 76.3516C464.242 74.2682 464.867 72.5886 466.117 71.3125C467.367 70.0104 469.177 69.3594 471.547 69.3594C473.917 69.3594 475.635 69.9974 476.703 71.2735C477.797 72.5495 478.344 74.112 478.344 75.961C478.344 79.763 477.133 83.1354 474.711 86.0781C475.362 86.3386 475.922 86.4688 476.391 86.4688C476.859 86.4688 477.341 86.3646 477.836 86.1563C478.357 85.9219 478.943 85.5313 479.594 84.9844C480.245 84.4115 480.818 83.8776 481.312 83.3828C481.807 82.888 482.523 82.1458 483.461 81.1563C484.398 80.1667 485.193 79.3594 485.844 78.7344V83.0313C483.682 85.3229 481.924 86.9505 480.57 87.9141C479.242 88.8776 477.927 89.3594 476.625 89.3594C475.349 89.3594 474.177 89.1771 473.109 88.8125C471.104 91.2604 468.721 93.2656 465.961 94.8281C463.227 96.3646 460.388 97.1328 457.445 97.1328C453.227 97.1328 450.219 95.1406 448.422 91.1563C447.406 88.9167 446.898 86.4037 446.898 83.6172C446.898 77.2891 449.138 72.3021 453.617 68.6563C458.122 65.0104 464.099 63.1875 471.547 63.1875C472.068 63.1875 472.354 63.3568 472.406 63.6953ZM474.633 76.7031C474.633 74.3073 473.565 73.1094 471.43 73.1094C469.32 73.1094 468.266 74.3724 468.266 76.8985C468.266 78.2266 468.617 79.6068 469.32 81.0391C470.049 82.4453 471.026 83.5651 472.25 84.3985C472.771 83.5391 473.292 82.3542 473.812 80.8438C474.359 79.3073 474.633 77.9271 474.633 76.7031Z" stroke="white" stroke-width="4" mask="url(#path-1-outside-1)"/>
<path d="M518.578 78.9688V83.3438C514.438 87.5625 510.766 90.9219 507.562 93.4219C504.385 95.8958 502.263 97.1328 501.195 97.1328C499.242 97.1328 498.266 96.0391 498.266 93.8516C498.266 91.6641 498.747 89.0599 499.711 86.0391C500.701 82.9922 501.677 80.2448 502.641 77.7969C503.63 75.3229 504.125 73.6693 504.125 72.836C504.125 72.0026 503.969 71.3906 503.656 71C503.37 70.6094 503.018 70.4141 502.602 70.4141C501.117 70.4141 499.516 71.4557 497.797 73.5391C496.078 75.5964 494.542 78.0964 493.188 81.0391C490.375 87.1328 488.526 92.1198 487.641 96H480.18C480.206 93.1875 481 88.5261 482.562 82.0156C484.125 75.5052 485.518 70.7005 486.742 67.6016C487.237 66.3516 487.94 65.5182 488.852 65.1016C489.789 64.6849 491.039 64.4766 492.602 64.4766H495.219C493.318 71.0391 491.911 75.7656 491 78.6563C492.745 75.4011 495.271 72.0938 498.578 68.7344C500.193 67.1198 501.951 65.7917 503.852 64.75C505.753 63.7083 507.549 63.1875 509.242 63.1875C511.794 63.1875 513.07 64.711 513.07 67.7578C513.07 69.2162 512.146 72.6797 510.297 78.1485C508.474 83.5912 507.562 86.599 507.562 87.1719C507.562 87.7188 507.719 87.9922 508.031 87.9922C508.37 87.9922 508.799 87.8229 509.32 87.4844C509.867 87.1198 511.417 85.7266 513.969 83.3047C516.521 80.8568 518.057 79.4115 518.578 78.9688Z" stroke="white" stroke-width="4" mask="url(#path-1-outside-1)"/>
<path d="M525.727 73.9297C527.706 76.4818 529.893 77.7578 532.289 77.7578C533.799 77.7578 535.102 77.0156 536.195 75.5313C537.315 74.0469 537.875 72.4844 537.875 70.8438C537.875 69.2031 537.562 68.1094 536.938 67.5625C536.339 66.9896 535.453 66.7031 534.281 66.7031C533.135 66.7031 532.055 66.9636 531.039 67.4844C530.049 68.0052 529.203 68.6563 528.5 69.4375C527.146 70.974 526.221 72.4714 525.727 73.9297ZM547.172 78.8906V83.1875C543.031 87.7448 539.333 91.2083 536.078 93.5781C532.823 95.9479 529.724 97.1328 526.781 97.1328C520.896 97.1328 517.224 95.2188 515.766 91.3906C515.219 89.8802 514.945 88.0573 514.945 85.9219C514.945 82.1198 515.74 78.5 517.328 75.0625C518.917 71.599 521.195 68.7604 524.164 66.5469C527.159 64.3073 530.479 63.1875 534.125 63.1875C540.271 63.1875 543.344 65.4792 543.344 70.0625C543.344 73.0313 542.146 75.6224 539.75 77.836C537.354 80.0235 534.659 81.1172 531.664 81.1172C530.466 81.1172 529.216 80.7656 527.914 80.0625C526.612 79.3594 525.505 78.3047 524.594 76.8985C523.474 79.2422 522.914 81.5339 522.914 83.7735C522.914 89.7891 525.102 92.7969 529.477 92.7969C530.622 92.7969 532.029 92.25 533.695 91.1563C535.388 90.0625 536.872 88.9167 538.148 87.7188C539.451 86.4948 541.091 84.8932 543.07 82.9141C545.049 80.9089 546.417 79.5677 547.172 78.8906Z" stroke="white" stroke-width="4" mask="url(#path-1-outside-1)"/>
<path d="M92 122.571C93.0714 122.571 94.1429 122.17 94.9464 121.366L136.665 81.1875C137.268 80.5848 152 67.125 152 51.0536C152 31.433 140.013 19.7143 119.991 19.7143C108.272 19.7143 97.2902 28.9554 92 34.1786C86.7098 28.9554 75.7277 19.7143 64.0089 19.7143C43.9866 19.7143 32 31.433 32 51.0536C32 67.125 46.7321 80.5848 47.2679 81.0536L89.0536 121.366C89.8571 122.17 90.9286 122.571 92 122.571Z" stroke="white" stroke-width="4" mask="url(#path-1-outside-1)"/>
</svg>
