<svg width="753" height="300" viewBox="0 0 753 300" fill="none" xmlns="http://www.w3.org/2000/svg">
<g clip-path="url(#clip0)">
<mask id="path-1-outside-1" maskUnits="userSpaceOnUse" x="52.707" y="25.251" width="636" height="260" fill="black">
<rect fill="white" x="52.707" y="25.251" width="636" height="260"/>
<path d="M184.003 224.197C179.69 222.977 177.533 220.576 177.533 216.995L180.951 84.3047H179.242L120.771 206.009C117.271 212.275 112.307 218.989 105.878 226.15C99.4489 233.312 92.0433 239.7 83.6611 245.315C75.279 250.931 67.8734 253.738 61.4443 253.738C57.6195 253.738 55.707 248.164 55.707 237.015C55.707 232.05 59.3691 228.104 66.6934 225.174C75.3197 221.837 82.4404 218.908 88.0557 216.385C99.1234 211.421 107.099 204.625 111.981 195.999C118.573 181.757 130.17 157.221 146.771 122.391C163.454 87.5599 174.604 64.1631 180.219 52.2002C183.555 46.0967 188.438 41.1325 194.867 37.3076C201.378 33.4014 208.173 31.4482 215.253 31.4482C215.253 31.5296 215.741 31.8145 216.718 32.3027C213.869 53.9499 211.713 79.0964 210.248 107.742C208.865 136.307 207.929 154.658 207.44 162.796H209.271C210.736 159.622 213.096 154.983 216.352 148.88C230.512 121.862 247.642 87.9668 267.743 47.1953L267.499 47.4395C269.696 43.8587 275.027 39.9932 283.49 35.8428C292.035 31.611 298.627 29.4137 303.266 29.251L304.242 29.7393C293.093 87.6006 285.972 126.867 282.88 147.537C279.787 168.126 278.241 182.815 278.241 191.604C278.241 200.394 280.154 204.788 283.979 204.788C289.838 204.788 305.097 192.703 329.755 168.533V182.449C298.017 213.292 275.678 228.714 262.738 228.714C253.542 228.714 248.944 220.21 248.944 203.201C248.944 190.831 250.165 177.241 252.606 162.43C256.106 141.352 258.995 124.466 261.273 111.771C263.552 99.0752 265.302 89.7572 266.522 83.8164C267.825 77.8757 268.476 74.3763 268.476 73.3184C268.476 72.2604 267.987 71.7314 267.011 71.7314C266.034 71.7314 265.383 72.2197 265.058 73.1963C215.009 171.748 187.991 222.081 184.003 224.197Z"/>
<path d="M351.972 153.03C358.157 161.006 364.993 164.993 372.479 164.993C377.2 164.993 381.269 162.674 384.687 158.035C388.186 153.396 389.936 148.514 389.936 143.387C389.936 138.26 388.959 134.842 387.006 133.133C385.134 131.342 382.367 130.447 378.705 130.447C375.124 130.447 371.747 131.261 368.573 132.889C365.481 134.516 362.836 136.551 360.639 138.992C356.407 143.794 353.518 148.473 351.972 153.03ZM418.988 168.533V181.961C406.049 196.202 394.493 207.026 384.32 214.432C374.148 221.837 364.464 225.54 355.268 225.54C336.876 225.54 325.401 219.559 320.844 207.596C319.135 202.876 318.28 197.179 318.28 190.506C318.28 178.624 320.762 167.312 325.727 156.57C330.691 145.747 337.812 136.876 347.089 129.959C356.448 122.96 366.824 119.461 378.217 119.461C397.423 119.461 407.025 126.622 407.025 140.945C407.025 150.223 403.282 158.32 395.795 165.237C388.308 172.073 379.885 175.491 370.526 175.491C366.783 175.491 362.877 174.393 358.808 172.195C354.739 169.998 351.28 166.702 348.432 162.308C344.932 169.632 343.183 176.793 343.183 183.792C343.183 202.591 350.019 211.99 363.69 211.99C367.271 211.99 371.666 210.281 376.874 206.863C382.164 203.445 386.802 199.865 390.79 196.121C394.859 192.296 399.986 187.291 406.171 181.106C412.356 174.84 416.628 170.649 418.988 168.533Z"/>
<path d="M464.398 133.011L479.047 131.302C481.407 131.302 482.587 131.871 482.587 133.011C482.587 134.15 479.779 140.538 474.164 152.176C461.306 178.543 454.877 194.412 454.877 199.783C454.877 199.865 454.836 200.19 454.755 200.76C454.755 201.248 454.755 201.655 454.755 201.98C454.836 202.225 454.918 202.591 454.999 203.079C455.08 203.567 455.202 203.934 455.365 204.178C455.935 204.91 456.749 205.276 457.807 205.276C459.923 205.276 466.392 200.475 477.216 190.872C488.121 181.188 495.567 173.66 499.555 168.289V181.961C470.502 211.014 450.93 225.54 440.839 225.54C437.258 225.54 434.573 223.953 432.782 220.779C430.992 217.524 430.097 214.35 430.097 211.258C430.097 208.165 430.707 204.625 431.928 200.638C433.148 196.569 434.776 191.93 436.811 186.722C438.926 181.513 440.88 176.793 442.67 172.562C444.46 168.33 446.413 163.772 448.529 158.89C450.727 153.925 451.988 151.036 452.313 150.223C447.675 154.943 442.263 160.11 436.078 165.726C429.975 171.341 424.237 176.915 418.866 182.449V168.777L443.646 143.021C433.718 140.579 427.289 136.754 424.359 131.546C423.708 130.488 423.383 129.552 423.383 128.738C423.383 123.042 425.539 118.037 429.853 113.724C434.166 109.41 439.903 107.254 447.064 107.254C450.727 107.254 452.558 109.41 452.558 113.724C452.558 116.246 451.825 119.013 450.36 122.024C448.896 124.954 447.146 126.948 445.111 128.006C448.855 131.342 455.284 133.011 464.398 133.011Z"/>
<path d="M544.965 133.011L559.613 131.302C561.973 131.302 563.153 131.871 563.153 133.011C563.153 134.15 560.346 140.538 554.73 152.176C541.872 178.543 535.443 194.412 535.443 199.783C535.443 199.865 535.403 200.19 535.321 200.76C535.321 201.248 535.321 201.655 535.321 201.98C535.403 202.225 535.484 202.591 535.565 203.079C535.647 203.567 535.769 203.934 535.932 204.178C536.501 204.91 537.315 205.276 538.373 205.276C540.489 205.276 546.959 200.475 557.782 190.872C568.687 181.188 576.133 173.66 580.121 168.289V181.961C551.068 211.014 531.496 225.54 521.405 225.54C517.825 225.54 515.139 223.953 513.349 220.779C511.558 217.524 510.663 214.35 510.663 211.258C510.663 208.165 511.273 204.625 512.494 200.638C513.715 196.569 515.342 191.93 517.377 186.722C519.493 181.513 521.446 176.793 523.236 172.562C525.027 168.33 526.98 163.772 529.096 158.89C531.293 153.925 532.554 151.036 532.88 150.223C528.241 154.943 522.829 160.11 516.645 165.726C510.541 171.341 504.804 176.915 499.433 182.449V168.777L524.213 143.021C514.285 140.579 507.855 136.754 504.926 131.546C504.275 130.488 503.949 129.552 503.949 128.738C503.949 123.042 506.106 118.037 510.419 113.724C514.732 109.41 520.469 107.254 527.631 107.254C531.293 107.254 533.124 109.41 533.124 113.724C533.124 116.246 532.392 119.013 530.927 122.024C529.462 124.954 527.712 126.948 525.678 128.006C529.421 131.342 535.85 133.011 544.965 133.011Z"/>
<path d="M627.24 198.196C608.279 216.425 592.287 225.54 579.267 225.54C574.221 225.54 570.559 223.587 568.28 219.681C566.083 215.774 564.984 210.729 564.984 204.544C564.984 194.209 572.309 168.208 586.957 126.541C587.283 124.507 593.874 123.489 606.732 123.489H611.005C611.005 123.652 609.337 128.982 606 139.48C595.99 170.975 590.985 189.651 590.985 195.511C590.985 201.37 593.712 204.3 599.164 204.3C603.803 204.3 609.54 202.306 616.376 198.318C623.293 194.331 627.322 191.157 628.461 188.797L641.767 138.016C643.557 131.098 645.998 126.867 649.091 125.32C651.451 124.1 655.235 123.489 660.443 123.489H668.744C666.872 128.779 664.268 137.487 660.932 149.612C657.676 161.738 655.357 170.324 653.974 175.369C650.963 186.355 648.887 194.127 647.748 198.685L646.771 201.98C665.326 186.518 678.225 175.288 685.468 168.289V181.961L644.696 218.704V219.192C642.825 229.528 639.854 238.805 635.785 247.024C631.798 255.244 627.281 261.795 622.235 266.678C611.9 276.688 601.321 281.692 590.497 281.692C584.882 281.692 579.633 279.902 574.75 276.321C569.867 272.741 567.426 268.509 567.426 263.626C567.426 258.743 569.053 254.593 572.309 251.175C575.645 247.838 580.365 244.461 586.469 241.043L623.212 217.728L627.24 198.196ZM621.747 232.742L599.164 247.024C596.479 248.652 594.322 250.035 592.694 251.175C591.148 252.396 589.602 254.104 588.056 256.302C586.509 258.499 585.736 260.818 585.736 263.26C585.736 269.933 588.747 273.27 594.77 273.27C602.012 273.27 607.872 269.567 612.348 262.161C616.824 254.756 619.957 244.949 621.747 232.742Z"/>
</mask>
<path d="M184.003 224.197C179.69 222.977 177.533 220.576 177.533 216.995L180.951 84.3047H179.242L120.771 206.009C117.271 212.275 112.307 218.989 105.878 226.15C99.4489 233.312 92.0433 239.7 83.6611 245.315C75.279 250.931 67.8734 253.738 61.4443 253.738C57.6195 253.738 55.707 248.164 55.707 237.015C55.707 232.05 59.3691 228.104 66.6934 225.174C75.3197 221.837 82.4404 218.908 88.0557 216.385C99.1234 211.421 107.099 204.625 111.981 195.999C118.573 181.757 130.17 157.221 146.771 122.391C163.454 87.5599 174.604 64.1631 180.219 52.2002C183.555 46.0967 188.438 41.1325 194.867 37.3076C201.378 33.4014 208.173 31.4482 215.253 31.4482C215.253 31.5296 215.741 31.8145 216.718 32.3027C213.869 53.9499 211.713 79.0964 210.248 107.742C208.865 136.307 207.929 154.658 207.44 162.796H209.271C210.736 159.622 213.096 154.983 216.352 148.88C230.512 121.862 247.642 87.9668 267.743 47.1953L267.499 47.4395C269.696 43.8587 275.027 39.9932 283.49 35.8428C292.035 31.611 298.627 29.4137 303.266 29.251L304.242 29.7393C293.093 87.6006 285.972 126.867 282.88 147.537C279.787 168.126 278.241 182.815 278.241 191.604C278.241 200.394 280.154 204.788 283.979 204.788C289.838 204.788 305.097 192.703 329.755 168.533V182.449C298.017 213.292 275.678 228.714 262.738 228.714C253.542 228.714 248.944 220.21 248.944 203.201C248.944 190.831 250.165 177.241 252.606 162.43C256.106 141.352 258.995 124.466 261.273 111.771C263.552 99.0752 265.302 89.7572 266.522 83.8164C267.825 77.8757 268.476 74.3763 268.476 73.3184C268.476 72.2604 267.987 71.7314 267.011 71.7314C266.034 71.7314 265.383 72.2197 265.058 73.1963C215.009 171.748 187.991 222.081 184.003 224.197Z" fill="#FF000F"/>
<path d="M351.972 153.03C358.157 161.006 364.993 164.993 372.479 164.993C377.2 164.993 381.269 162.674 384.687 158.035C388.186 153.396 389.936 148.514 389.936 143.387C389.936 138.26 388.959 134.842 387.006 133.133C385.134 131.342 382.367 130.447 378.705 130.447C375.124 130.447 371.747 131.261 368.573 132.889C365.481 134.516 362.836 136.551 360.639 138.992C356.407 143.794 353.518 148.473 351.972 153.03ZM418.988 168.533V181.961C406.049 196.202 394.493 207.026 384.32 214.432C374.148 221.837 364.464 225.54 355.268 225.54C336.876 225.54 325.401 219.559 320.844 207.596C319.135 202.876 318.28 197.179 318.28 190.506C318.28 178.624 320.762 167.312 325.727 156.57C330.691 145.747 337.812 136.876 347.089 129.959C356.448 122.96 366.824 119.461 378.217 119.461C397.423 119.461 407.025 126.622 407.025 140.945C407.025 150.223 403.282 158.32 395.795 165.237C388.308 172.073 379.885 175.491 370.526 175.491C366.783 175.491 362.877 174.393 358.808 172.195C354.739 169.998 351.28 166.702 348.432 162.308C344.932 169.632 343.183 176.793 343.183 183.792C343.183 202.591 350.019 211.99 363.69 211.99C367.271 211.99 371.666 210.281 376.874 206.863C382.164 203.445 386.802 199.865 390.79 196.121C394.859 192.296 399.986 187.291 406.171 181.106C412.356 174.84 416.628 170.649 418.988 168.533Z" fill="#FF000F"/>
<path d="M464.398 133.011L479.047 131.302C481.407 131.302 482.587 131.871 482.587 133.011C482.587 134.15 479.779 140.538 474.164 152.176C461.306 178.543 454.877 194.412 454.877 199.783C454.877 199.865 454.836 200.19 454.755 200.76C454.755 201.248 454.755 201.655 454.755 201.98C454.836 202.225 454.918 202.591 454.999 203.079C455.08 203.567 455.202 203.934 455.365 204.178C455.935 204.91 456.749 205.276 457.807 205.276C459.923 205.276 466.392 200.475 477.216 190.872C488.121 181.188 495.567 173.66 499.555 168.289V181.961C470.502 211.014 450.93 225.54 440.839 225.54C437.258 225.54 434.573 223.953 432.782 220.779C430.992 217.524 430.097 214.35 430.097 211.258C430.097 208.165 430.707 204.625 431.928 200.638C433.148 196.569 434.776 191.93 436.811 186.722C438.926 181.513 440.88 176.793 442.67 172.562C444.46 168.33 446.413 163.772 448.529 158.89C450.727 153.925 451.988 151.036 452.313 150.223C447.675 154.943 442.263 160.11 436.078 165.726C429.975 171.341 424.237 176.915 418.866 182.449V168.777L443.646 143.021C433.718 140.579 427.289 136.754 424.359 131.546C423.708 130.488 423.383 129.552 423.383 128.738C423.383 123.042 425.539 118.037 429.853 113.724C434.166 109.41 439.903 107.254 447.064 107.254C450.727 107.254 452.558 109.41 452.558 113.724C452.558 116.246 451.825 119.013 450.36 122.024C448.896 124.954 447.146 126.948 445.111 128.006C448.855 131.342 455.284 133.011 464.398 133.011Z" fill="#FF000F"/>
<path d="M544.965 133.011L559.613 131.302C561.973 131.302 563.153 131.871 563.153 133.011C563.153 134.15 560.346 140.538 554.73 152.176C541.872 178.543 535.443 194.412 535.443 199.783C535.443 199.865 535.403 200.19 535.321 200.76C535.321 201.248 535.321 201.655 535.321 201.98C535.403 202.225 535.484 202.591 535.565 203.079C535.647 203.567 535.769 203.934 535.932 204.178C536.501 204.91 537.315 205.276 538.373 205.276C540.489 205.276 546.959 200.475 557.782 190.872C568.687 181.188 576.133 173.66 580.121 168.289V181.961C551.068 211.014 531.496 225.54 521.405 225.54C517.825 225.54 515.139 223.953 513.349 220.779C511.558 217.524 510.663 214.35 510.663 211.258C510.663 208.165 511.273 204.625 512.494 200.638C513.715 196.569 515.342 191.93 517.377 186.722C519.493 181.513 521.446 176.793 523.236 172.562C525.027 168.33 526.98 163.772 529.096 158.89C531.293 153.925 532.554 151.036 532.88 150.223C528.241 154.943 522.829 160.11 516.645 165.726C510.541 171.341 504.804 176.915 499.433 182.449V168.777L524.213 143.021C514.285 140.579 507.855 136.754 504.926 131.546C504.275 130.488 503.949 129.552 503.949 128.738C503.949 123.042 506.106 118.037 510.419 113.724C514.732 109.41 520.469 107.254 527.631 107.254C531.293 107.254 533.124 109.41 533.124 113.724C533.124 116.246 532.392 119.013 530.927 122.024C529.462 124.954 527.712 126.948 525.678 128.006C529.421 131.342 535.85 133.011 544.965 133.011Z" fill="#FF000F"/>
<path d="M627.24 198.196C608.279 216.425 592.287 225.54 579.267 225.54C574.221 225.54 570.559 223.587 568.28 219.681C566.083 215.774 564.984 210.729 564.984 204.544C564.984 194.209 572.309 168.208 586.957 126.541C587.283 124.507 593.874 123.489 606.732 123.489H611.005C611.005 123.652 609.337 128.982 606 139.48C595.99 170.975 590.985 189.651 590.985 195.511C590.985 201.37 593.712 204.3 599.164 204.3C603.803 204.3 609.54 202.306 616.376 198.318C623.293 194.331 627.322 191.157 628.461 188.797L641.767 138.016C643.557 131.098 645.998 126.867 649.091 125.32C651.451 124.1 655.235 123.489 660.443 123.489H668.744C666.872 128.779 664.268 137.487 660.932 149.612C657.676 161.738 655.357 170.324 653.974 175.369C650.963 186.355 648.887 194.127 647.748 198.685L646.771 201.98C665.326 186.518 678.225 175.288 685.468 168.289V181.961L644.696 218.704V219.192C642.825 229.528 639.854 238.805 635.785 247.024C631.798 255.244 627.281 261.795 622.235 266.678C611.9 276.688 601.321 281.692 590.497 281.692C584.882 281.692 579.633 279.902 574.75 276.321C569.867 272.741 567.426 268.509 567.426 263.626C567.426 258.743 569.053 254.593 572.309 251.175C575.645 247.838 580.365 244.461 586.469 241.043L623.212 217.728L627.24 198.196ZM621.747 232.742L599.164 247.024C596.479 248.652 594.322 250.035 592.694 251.175C591.148 252.396 589.602 254.104 588.056 256.302C586.509 258.499 585.736 260.818 585.736 263.26C585.736 269.933 588.747 273.27 594.77 273.27C602.012 273.27 607.872 269.567 612.348 262.161C616.824 254.756 619.957 244.949 621.747 232.742Z" fill="#FF000F"/>
<path d="M184.003 224.197C179.69 222.977 177.533 220.576 177.533 216.995L180.951 84.3047H179.242L120.771 206.009C117.271 212.275 112.307 218.989 105.878 226.15C99.4489 233.312 92.0433 239.7 83.6611 245.315C75.279 250.931 67.8734 253.738 61.4443 253.738C57.6195 253.738 55.707 248.164 55.707 237.015C55.707 232.05 59.3691 228.104 66.6934 225.174C75.3197 221.837 82.4404 218.908 88.0557 216.385C99.1234 211.421 107.099 204.625 111.981 195.999C118.573 181.757 130.17 157.221 146.771 122.391C163.454 87.5599 174.604 64.1631 180.219 52.2002C183.555 46.0967 188.438 41.1325 194.867 37.3076C201.378 33.4014 208.173 31.4482 215.253 31.4482C215.253 31.5296 215.741 31.8145 216.718 32.3027C213.869 53.9499 211.713 79.0964 210.248 107.742C208.865 136.307 207.929 154.658 207.44 162.796H209.271C210.736 159.622 213.096 154.983 216.352 148.88C230.512 121.862 247.642 87.9668 267.743 47.1953L267.499 47.4395C269.696 43.8587 275.027 39.9932 283.49 35.8428C292.035 31.611 298.627 29.4137 303.266 29.251L304.242 29.7393C293.093 87.6006 285.972 126.867 282.88 147.537C279.787 168.126 278.241 182.815 278.241 191.604C278.241 200.394 280.154 204.788 283.979 204.788C289.838 204.788 305.097 192.703 329.755 168.533V182.449C298.017 213.292 275.678 228.714 262.738 228.714C253.542 228.714 248.944 220.21 248.944 203.201C248.944 190.831 250.165 177.241 252.606 162.43C256.106 141.352 258.995 124.466 261.273 111.771C263.552 99.0752 265.302 89.7572 266.522 83.8164C267.825 77.8757 268.476 74.3763 268.476 73.3184C268.476 72.2604 267.987 71.7314 267.011 71.7314C266.034 71.7314 265.383 72.2197 265.058 73.1963C215.009 171.748 187.991 222.081 184.003 224.197Z" stroke="white" stroke-width="6" mask="url(#path-1-outside-1)"/>
<path d="M351.972 153.03C358.157 161.006 364.993 164.993 372.479 164.993C377.2 164.993 381.269 162.674 384.687 158.035C388.186 153.396 389.936 148.514 389.936 143.387C389.936 138.26 388.959 134.842 387.006 133.133C385.134 131.342 382.367 130.447 378.705 130.447C375.124 130.447 371.747 131.261 368.573 132.889C365.481 134.516 362.836 136.551 360.639 138.992C356.407 143.794 353.518 148.473 351.972 153.03ZM418.988 168.533V181.961C406.049 196.202 394.493 207.026 384.32 214.432C374.148 221.837 364.464 225.54 355.268 225.54C336.876 225.54 325.401 219.559 320.844 207.596C319.135 202.876 318.28 197.179 318.28 190.506C318.28 178.624 320.762 167.312 325.727 156.57C330.691 145.747 337.812 136.876 347.089 129.959C356.448 122.96 366.824 119.461 378.217 119.461C397.423 119.461 407.025 126.622 407.025 140.945C407.025 150.223 403.282 158.32 395.795 165.237C388.308 172.073 379.885 175.491 370.526 175.491C366.783 175.491 362.877 174.393 358.808 172.195C354.739 169.998 351.28 166.702 348.432 162.308C344.932 169.632 343.183 176.793 343.183 183.792C343.183 202.591 350.019 211.99 363.69 211.99C367.271 211.99 371.666 210.281 376.874 206.863C382.164 203.445 386.802 199.865 390.79 196.121C394.859 192.296 399.986 187.291 406.171 181.106C412.356 174.84 416.628 170.649 418.988 168.533Z" stroke="white" stroke-width="6" mask="url(#path-1-outside-1)"/>
<path d="M464.398 133.011L479.047 131.302C481.407 131.302 482.587 131.871 482.587 133.011C482.587 134.15 479.779 140.538 474.164 152.176C461.306 178.543 454.877 194.412 454.877 199.783C454.877 199.865 454.836 200.19 454.755 200.76C454.755 201.248 454.755 201.655 454.755 201.98C454.836 202.225 454.918 202.591 454.999 203.079C455.08 203.567 455.202 203.934 455.365 204.178C455.935 204.91 456.749 205.276 457.807 205.276C459.923 205.276 466.392 200.475 477.216 190.872C488.121 181.188 495.567 173.66 499.555 168.289V181.961C470.502 211.014 450.93 225.54 440.839 225.54C437.258 225.54 434.573 223.953 432.782 220.779C430.992 217.524 430.097 214.35 430.097 211.258C430.097 208.165 430.707 204.625 431.928 200.638C433.148 196.569 434.776 191.93 436.811 186.722C438.926 181.513 440.88 176.793 442.67 172.562C444.46 168.33 446.413 163.772 448.529 158.89C450.727 153.925 451.988 151.036 452.313 150.223C447.675 154.943 442.263 160.11 436.078 165.726C429.975 171.341 424.237 176.915 418.866 182.449V168.777L443.646 143.021C433.718 140.579 427.289 136.754 424.359 131.546C423.708 130.488 423.383 129.552 423.383 128.738C423.383 123.042 425.539 118.037 429.853 113.724C434.166 109.41 439.903 107.254 447.064 107.254C450.727 107.254 452.558 109.41 452.558 113.724C452.558 116.246 451.825 119.013 450.36 122.024C448.896 124.954 447.146 126.948 445.111 128.006C448.855 131.342 455.284 133.011 464.398 133.011Z" stroke="white" stroke-width="6" mask="url(#path-1-outside-1)"/>
<path d="M544.965 133.011L559.613 131.302C561.973 131.302 563.153 131.871 563.153 133.011C563.153 134.15 560.346 140.538 554.73 152.176C541.872 178.543 535.443 194.412 535.443 199.783C535.443 199.865 535.403 200.19 535.321 200.76C535.321 201.248 535.321 201.655 535.321 201.98C535.403 202.225 535.484 202.591 535.565 203.079C535.647 203.567 535.769 203.934 535.932 204.178C536.501 204.91 537.315 205.276 538.373 205.276C540.489 205.276 546.959 200.475 557.782 190.872C568.687 181.188 576.133 173.66 580.121 168.289V181.961C551.068 211.014 531.496 225.54 521.405 225.54C517.825 225.54 515.139 223.953 513.349 220.779C511.558 217.524 510.663 214.35 510.663 211.258C510.663 208.165 511.273 204.625 512.494 200.638C513.715 196.569 515.342 191.93 517.377 186.722C519.493 181.513 521.446 176.793 523.236 172.562C525.027 168.33 526.98 163.772 529.096 158.89C531.293 153.925 532.554 151.036 532.88 150.223C528.241 154.943 522.829 160.11 516.645 165.726C510.541 171.341 504.804 176.915 499.433 182.449V168.777L524.213 143.021C514.285 140.579 507.855 136.754 504.926 131.546C504.275 130.488 503.949 129.552 503.949 128.738C503.949 123.042 506.106 118.037 510.419 113.724C514.732 109.41 520.469 107.254 527.631 107.254C531.293 107.254 533.124 109.41 533.124 113.724C533.124 116.246 532.392 119.013 530.927 122.024C529.462 124.954 527.712 126.948 525.678 128.006C529.421 131.342 535.85 133.011 544.965 133.011Z" stroke="white" stroke-width="6" mask="url(#path-1-outside-1)"/>
<path d="M627.24 198.196C608.279 216.425 592.287 225.54 579.267 225.54C574.221 225.54 570.559 223.587 568.28 219.681C566.083 215.774 564.984 210.729 564.984 204.544C564.984 194.209 572.309 168.208 586.957 126.541C587.283 124.507 593.874 123.489 606.732 123.489H611.005C611.005 123.652 609.337 128.982 606 139.48C595.99 170.975 590.985 189.651 590.985 195.511C590.985 201.37 593.712 204.3 599.164 204.3C603.803 204.3 609.54 202.306 616.376 198.318C623.293 194.331 627.322 191.157 628.461 188.797L641.767 138.016C643.557 131.098 645.998 126.867 649.091 125.32C651.451 124.1 655.235 123.489 660.443 123.489H668.744C666.872 128.779 664.268 137.487 660.932 149.612C657.676 161.738 655.357 170.324 653.974 175.369C650.963 186.355 648.887 194.127 647.748 198.685L646.771 201.98C665.326 186.518 678.225 175.288 685.468 168.289V181.961L644.696 218.704V219.192C642.825 229.528 639.854 238.805 635.785 247.024C631.798 255.244 627.281 261.795 622.235 266.678C611.9 276.688 601.321 281.692 590.497 281.692C584.882 281.692 579.633 279.902 574.75 276.321C569.867 272.741 567.426 268.509 567.426 263.626C567.426 258.743 569.053 254.593 572.309 251.175C575.645 247.838 580.365 244.461 586.469 241.043L623.212 217.728L627.24 198.196ZM621.747 232.742L599.164 247.024C596.479 248.652 594.322 250.035 592.694 251.175C591.148 252.396 589.602 254.104 588.056 256.302C586.509 258.499 585.736 260.818 585.736 263.26C585.736 269.933 588.747 273.27 594.77 273.27C602.012 273.27 607.872 269.567 612.348 262.161C616.824 254.756 619.957 244.949 621.747 232.742Z" stroke="white" stroke-width="6" mask="url(#path-1-outside-1)"/>
</g>
<defs>
<clipPath id="clip0">
<rect width="753" height="300" fill="white"/>
</clipPath>
</defs>
</svg>
