<svg width="594" height="235" viewBox="0 0 594 235" fill="none" xmlns="http://www.w3.org/2000/svg">
<g clip-path="url(#clip0)">
<mask id="path-1-outside-1" maskUnits="userSpaceOnUse" x="50.7656" y="18.6973" width="500" height="199" fill="black">
<rect fill="white" x="50.7656" y="18.6973" width="500" height="199"/>
<path d="M205.011 51.7266C207.208 51.7266 208.307 53.0693 208.307 55.7549C208.307 56.7314 208.185 57.3825 207.94 57.708C200.779 76.9137 192.112 113.291 181.939 166.839C179.905 177.5 180.068 183.807 182.428 185.76C183.16 186.411 184.096 186.736 185.235 186.736C189.63 186.736 193.536 185.434 196.954 182.83C202.407 178.68 212.986 168.751 228.692 153.045V166.717C226.251 169.24 222.996 172.698 218.927 177.093C214.939 181.406 211.806 184.743 209.527 187.103C207.33 189.463 204.563 192.311 201.227 195.647C197.89 198.903 195.042 201.466 192.682 203.338C190.322 205.128 187.717 206.959 184.869 208.831C179.661 212.249 174.778 213.958 170.221 213.958C165.663 213.958 162.205 213.104 159.845 211.395C155.125 208.139 152.765 201.181 152.765 190.521C152.765 188.16 152.927 185.8 153.253 183.44C144.464 192.555 134.78 199.92 124.2 205.535C113.621 211.15 104.059 213.958 95.5137 213.958C81.028 213.958 70.4486 210.052 63.7754 202.239C57.1022 194.345 53.7656 182.586 53.7656 166.961C53.7656 155.73 55.8408 144.174 59.9912 132.293C64.223 120.33 69.9196 109.059 77.0811 98.4795C84.2425 87.9001 92.7467 77.8903 102.594 68.4502C112.441 58.9287 122.857 50.75 133.844 43.9141C157.607 29.1029 181.085 21.6973 204.278 21.6973C212.498 21.6973 220.839 22.9993 229.303 25.6035C245.416 30.4863 253.473 37.2002 253.473 45.7451C253.473 49.1631 250.868 53.2321 245.66 57.9521C240.533 62.6722 236.139 65.5205 232.477 66.4971C227.757 44.5244 215.916 33.5381 196.954 33.5381C182.468 33.5381 166.233 39.7637 148.248 52.2148C131.077 64.0964 116.428 78.9482 104.303 96.7705C91.6074 115.569 85.2598 133.473 85.2598 150.481C85.2598 163.421 88.3522 173.349 94.5371 180.267C100.803 187.103 109.389 190.521 120.294 190.521C127.537 190.521 134.902 187.55 142.389 181.609C149.876 175.587 154.433 168.182 156.061 159.393C157.77 150.604 161.635 133.188 167.657 107.146C173.761 81.1048 177.667 65.3577 179.376 59.9053C181.166 54.4528 189.711 51.7266 205.011 51.7266Z"/>
<path d="M330.865 153.777V167.449C317.926 180.633 306.451 191.131 296.441 198.943C286.513 206.674 279.881 210.54 276.544 210.54C270.44 210.54 267.389 207.122 267.389 200.286C267.389 193.45 268.894 185.312 271.905 175.872C274.998 166.351 278.049 157.765 281.061 150.115C284.153 142.384 285.699 137.216 285.699 134.612C285.699 132.008 285.211 130.096 284.234 128.875C283.339 127.654 282.241 127.044 280.938 127.044C276.3 127.044 271.295 130.299 265.924 136.81C260.553 143.239 255.751 151.051 251.52 160.247C242.73 179.29 236.952 194.874 234.186 207H210.87C210.951 198.211 213.434 183.644 218.316 163.299C223.199 142.954 227.553 127.939 231.378 118.255C232.924 114.349 235.121 111.744 237.97 110.442C240.899 109.14 244.806 108.489 249.688 108.489H257.867C251.926 128.997 247.532 143.768 244.684 152.801C250.136 142.628 258.03 132.293 268.365 121.795C273.411 116.749 278.904 112.599 284.845 109.344C290.785 106.089 296.401 104.461 301.69 104.461C309.666 104.461 313.653 109.222 313.653 118.743C313.653 123.3 310.764 134.124 304.986 151.214C299.29 168.222 296.441 177.622 296.441 179.412C296.441 181.121 296.93 181.976 297.906 181.976C298.964 181.976 300.307 181.447 301.935 180.389C303.644 179.249 308.486 174.896 316.461 167.327C324.436 159.677 329.238 155.161 330.865 153.777Z"/>
<path d="M433.16 153.777V167.449C420.221 180.633 408.746 191.131 398.736 198.943C388.808 206.674 382.175 210.54 378.839 210.54C372.735 210.54 369.684 207.122 369.684 200.286C369.684 193.45 371.189 185.312 374.2 175.872C377.293 166.351 380.344 157.765 383.355 150.115C386.448 142.384 387.994 137.216 387.994 134.612C387.994 132.008 387.506 130.096 386.529 128.875C385.634 127.654 384.535 127.044 383.233 127.044C378.595 127.044 373.59 130.299 368.219 136.81C362.848 143.239 358.046 151.051 353.814 160.247C345.025 179.29 339.247 194.874 336.48 207H313.165C313.246 198.211 315.729 183.644 320.611 163.299C325.494 142.954 329.848 127.939 333.673 118.255C335.219 114.349 337.416 111.744 340.265 110.442C343.194 109.14 347.101 108.489 351.983 108.489H360.162C354.221 128.997 349.827 143.768 346.979 152.801C352.431 142.628 360.325 132.293 370.66 121.795C375.706 116.749 381.199 112.599 387.14 109.344C393.08 106.089 398.696 104.461 403.985 104.461C411.961 104.461 415.948 109.222 415.948 118.743C415.948 123.3 413.059 134.124 407.281 151.214C401.585 168.222 398.736 177.622 398.736 179.412C398.736 181.121 399.225 181.976 400.201 181.976C401.259 181.976 402.602 181.447 404.229 180.389C405.938 179.249 410.781 174.896 418.756 167.327C426.731 159.677 431.533 155.161 433.16 153.777Z"/>
<path d="M436.822 210.54C427.057 210.54 421.035 203.663 418.756 189.91C418.268 186.574 418.023 183.115 418.023 179.534C418.023 170.664 420.221 161.712 424.615 152.679C429.01 143.646 434.788 135.589 441.949 128.509C449.192 121.429 457.818 115.651 467.828 111.175C477.919 106.699 488.214 104.461 498.712 104.461C503.839 104.461 510.675 105.804 519.22 108.489C519.138 109.059 518.325 112.802 516.778 119.72C515.232 126.556 513.686 133.554 512.14 140.716C507.908 160.328 505.792 172.495 505.792 177.215C505.792 181.935 507.013 184.295 509.454 184.295C514.825 184.295 527.276 173.96 546.808 153.289V166.961C534.438 179.738 522.638 190.195 511.407 198.333C500.258 206.471 492.812 210.54 489.068 210.54C482.883 210.54 479.791 205.21 479.791 194.549C479.791 191.049 480.117 187.103 480.768 182.708C474.908 190.358 468.072 196.909 460.26 202.361C452.529 207.814 444.716 210.54 436.822 210.54ZM444.024 172.698C444.024 184.905 448.012 191.009 455.987 191.009C459.405 191.009 463.596 189.218 468.561 185.638C473.606 182.057 478.163 178.11 482.232 173.797L496.271 113.738C487.481 113.738 478.977 116.871 470.758 123.138C462.538 129.404 456.028 137.094 451.227 146.209C446.425 155.324 444.024 164.153 444.024 172.698Z"/>
</mask>
<path d="M205.011 51.7266C207.208 51.7266 208.307 53.0693 208.307 55.7549C208.307 56.7314 208.185 57.3825 207.94 57.708C200.779 76.9137 192.112 113.291 181.939 166.839C179.905 177.5 180.068 183.807 182.428 185.76C183.16 186.411 184.096 186.736 185.235 186.736C189.63 186.736 193.536 185.434 196.954 182.83C202.407 178.68 212.986 168.751 228.692 153.045V166.717C226.251 169.24 222.996 172.698 218.927 177.093C214.939 181.406 211.806 184.743 209.527 187.103C207.33 189.463 204.563 192.311 201.227 195.647C197.89 198.903 195.042 201.466 192.682 203.338C190.322 205.128 187.717 206.959 184.869 208.831C179.661 212.249 174.778 213.958 170.221 213.958C165.663 213.958 162.205 213.104 159.845 211.395C155.125 208.139 152.765 201.181 152.765 190.521C152.765 188.16 152.927 185.8 153.253 183.44C144.464 192.555 134.78 199.92 124.2 205.535C113.621 211.15 104.059 213.958 95.5137 213.958C81.028 213.958 70.4486 210.052 63.7754 202.239C57.1022 194.345 53.7656 182.586 53.7656 166.961C53.7656 155.73 55.8408 144.174 59.9912 132.293C64.223 120.33 69.9196 109.059 77.0811 98.4795C84.2425 87.9001 92.7467 77.8903 102.594 68.4502C112.441 58.9287 122.857 50.75 133.844 43.9141C157.607 29.1029 181.085 21.6973 204.278 21.6973C212.498 21.6973 220.839 22.9993 229.303 25.6035C245.416 30.4863 253.473 37.2002 253.473 45.7451C253.473 49.1631 250.868 53.2321 245.66 57.9521C240.533 62.6722 236.139 65.5205 232.477 66.4971C227.757 44.5244 215.916 33.5381 196.954 33.5381C182.468 33.5381 166.233 39.7637 148.248 52.2148C131.077 64.0964 116.428 78.9482 104.303 96.7705C91.6074 115.569 85.2598 133.473 85.2598 150.481C85.2598 163.421 88.3522 173.349 94.5371 180.267C100.803 187.103 109.389 190.521 120.294 190.521C127.537 190.521 134.902 187.55 142.389 181.609C149.876 175.587 154.433 168.182 156.061 159.393C157.77 150.604 161.635 133.188 167.657 107.146C173.761 81.1048 177.667 65.3577 179.376 59.9053C181.166 54.4528 189.711 51.7266 205.011 51.7266Z" fill="#FF000F"/>
<path d="M330.865 153.777V167.449C317.926 180.633 306.451 191.131 296.441 198.943C286.513 206.674 279.881 210.54 276.544 210.54C270.44 210.54 267.389 207.122 267.389 200.286C267.389 193.45 268.894 185.312 271.905 175.872C274.998 166.351 278.049 157.765 281.061 150.115C284.153 142.384 285.699 137.216 285.699 134.612C285.699 132.008 285.211 130.096 284.234 128.875C283.339 127.654 282.241 127.044 280.938 127.044C276.3 127.044 271.295 130.299 265.924 136.81C260.553 143.239 255.751 151.051 251.52 160.247C242.73 179.29 236.952 194.874 234.186 207H210.87C210.951 198.211 213.434 183.644 218.316 163.299C223.199 142.954 227.553 127.939 231.378 118.255C232.924 114.349 235.121 111.744 237.97 110.442C240.899 109.14 244.806 108.489 249.688 108.489H257.867C251.926 128.997 247.532 143.768 244.684 152.801C250.136 142.628 258.03 132.293 268.365 121.795C273.411 116.749 278.904 112.599 284.845 109.344C290.785 106.089 296.401 104.461 301.69 104.461C309.666 104.461 313.653 109.222 313.653 118.743C313.653 123.3 310.764 134.124 304.986 151.214C299.29 168.222 296.441 177.622 296.441 179.412C296.441 181.121 296.93 181.976 297.906 181.976C298.964 181.976 300.307 181.447 301.935 180.389C303.644 179.249 308.486 174.896 316.461 167.327C324.436 159.677 329.238 155.161 330.865 153.777Z" fill="#FF000F"/>
<path d="M433.16 153.777V167.449C420.221 180.633 408.746 191.131 398.736 198.943C388.808 206.674 382.175 210.54 378.839 210.54C372.735 210.54 369.684 207.122 369.684 200.286C369.684 193.45 371.189 185.312 374.2 175.872C377.293 166.351 380.344 157.765 383.355 150.115C386.448 142.384 387.994 137.216 387.994 134.612C387.994 132.008 387.506 130.096 386.529 128.875C385.634 127.654 384.535 127.044 383.233 127.044C378.595 127.044 373.59 130.299 368.219 136.81C362.848 143.239 358.046 151.051 353.814 160.247C345.025 179.29 339.247 194.874 336.48 207H313.165C313.246 198.211 315.729 183.644 320.611 163.299C325.494 142.954 329.848 127.939 333.673 118.255C335.219 114.349 337.416 111.744 340.265 110.442C343.194 109.14 347.101 108.489 351.983 108.489H360.162C354.221 128.997 349.827 143.768 346.979 152.801C352.431 142.628 360.325 132.293 370.66 121.795C375.706 116.749 381.199 112.599 387.14 109.344C393.08 106.089 398.696 104.461 403.985 104.461C411.961 104.461 415.948 109.222 415.948 118.743C415.948 123.3 413.059 134.124 407.281 151.214C401.585 168.222 398.736 177.622 398.736 179.412C398.736 181.121 399.225 181.976 400.201 181.976C401.259 181.976 402.602 181.447 404.229 180.389C405.938 179.249 410.781 174.896 418.756 167.327C426.731 159.677 431.533 155.161 433.16 153.777Z" fill="#FF000F"/>
<path d="M436.822 210.54C427.057 210.54 421.035 203.663 418.756 189.91C418.268 186.574 418.023 183.115 418.023 179.534C418.023 170.664 420.221 161.712 424.615 152.679C429.01 143.646 434.788 135.589 441.949 128.509C449.192 121.429 457.818 115.651 467.828 111.175C477.919 106.699 488.214 104.461 498.712 104.461C503.839 104.461 510.675 105.804 519.22 108.489C519.138 109.059 518.325 112.802 516.778 119.72C515.232 126.556 513.686 133.554 512.14 140.716C507.908 160.328 505.792 172.495 505.792 177.215C505.792 181.935 507.013 184.295 509.454 184.295C514.825 184.295 527.276 173.96 546.808 153.289V166.961C534.438 179.738 522.638 190.195 511.407 198.333C500.258 206.471 492.812 210.54 489.068 210.54C482.883 210.54 479.791 205.21 479.791 194.549C479.791 191.049 480.117 187.103 480.768 182.708C474.908 190.358 468.072 196.909 460.26 202.361C452.529 207.814 444.716 210.54 436.822 210.54ZM444.024 172.698C444.024 184.905 448.012 191.009 455.987 191.009C459.405 191.009 463.596 189.218 468.561 185.638C473.606 182.057 478.163 178.11 482.232 173.797L496.271 113.738C487.481 113.738 478.977 116.871 470.758 123.138C462.538 129.404 456.028 137.094 451.227 146.209C446.425 155.324 444.024 164.153 444.024 172.698Z" fill="#FF000F"/>
<path d="M205.011 51.7266C207.208 51.7266 208.307 53.0693 208.307 55.7549C208.307 56.7314 208.185 57.3825 207.94 57.708C200.779 76.9137 192.112 113.291 181.939 166.839C179.905 177.5 180.068 183.807 182.428 185.76C183.16 186.411 184.096 186.736 185.235 186.736C189.63 186.736 193.536 185.434 196.954 182.83C202.407 178.68 212.986 168.751 228.692 153.045V166.717C226.251 169.24 222.996 172.698 218.927 177.093C214.939 181.406 211.806 184.743 209.527 187.103C207.33 189.463 204.563 192.311 201.227 195.647C197.89 198.903 195.042 201.466 192.682 203.338C190.322 205.128 187.717 206.959 184.869 208.831C179.661 212.249 174.778 213.958 170.221 213.958C165.663 213.958 162.205 213.104 159.845 211.395C155.125 208.139 152.765 201.181 152.765 190.521C152.765 188.16 152.927 185.8 153.253 183.44C144.464 192.555 134.78 199.92 124.2 205.535C113.621 211.15 104.059 213.958 95.5137 213.958C81.028 213.958 70.4486 210.052 63.7754 202.239C57.1022 194.345 53.7656 182.586 53.7656 166.961C53.7656 155.73 55.8408 144.174 59.9912 132.293C64.223 120.33 69.9196 109.059 77.0811 98.4795C84.2425 87.9001 92.7467 77.8903 102.594 68.4502C112.441 58.9287 122.857 50.75 133.844 43.9141C157.607 29.1029 181.085 21.6973 204.278 21.6973C212.498 21.6973 220.839 22.9993 229.303 25.6035C245.416 30.4863 253.473 37.2002 253.473 45.7451C253.473 49.1631 250.868 53.2321 245.66 57.9521C240.533 62.6722 236.139 65.5205 232.477 66.4971C227.757 44.5244 215.916 33.5381 196.954 33.5381C182.468 33.5381 166.233 39.7637 148.248 52.2148C131.077 64.0964 116.428 78.9482 104.303 96.7705C91.6074 115.569 85.2598 133.473 85.2598 150.481C85.2598 163.421 88.3522 173.349 94.5371 180.267C100.803 187.103 109.389 190.521 120.294 190.521C127.537 190.521 134.902 187.55 142.389 181.609C149.876 175.587 154.433 168.182 156.061 159.393C157.77 150.604 161.635 133.188 167.657 107.146C173.761 81.1048 177.667 65.3577 179.376 59.9053C181.166 54.4528 189.711 51.7266 205.011 51.7266Z" stroke="white" stroke-width="6" mask="url(#path-1-outside-1)"/>
<path d="M330.865 153.777V167.449C317.926 180.633 306.451 191.131 296.441 198.943C286.513 206.674 279.881 210.54 276.544 210.54C270.44 210.54 267.389 207.122 267.389 200.286C267.389 193.45 268.894 185.312 271.905 175.872C274.998 166.351 278.049 157.765 281.061 150.115C284.153 142.384 285.699 137.216 285.699 134.612C285.699 132.008 285.211 130.096 284.234 128.875C283.339 127.654 282.241 127.044 280.938 127.044C276.3 127.044 271.295 130.299 265.924 136.81C260.553 143.239 255.751 151.051 251.52 160.247C242.73 179.29 236.952 194.874 234.186 207H210.87C210.951 198.211 213.434 183.644 218.316 163.299C223.199 142.954 227.553 127.939 231.378 118.255C232.924 114.349 235.121 111.744 237.97 110.442C240.899 109.14 244.806 108.489 249.688 108.489H257.867C251.926 128.997 247.532 143.768 244.684 152.801C250.136 142.628 258.03 132.293 268.365 121.795C273.411 116.749 278.904 112.599 284.845 109.344C290.785 106.089 296.401 104.461 301.69 104.461C309.666 104.461 313.653 109.222 313.653 118.743C313.653 123.3 310.764 134.124 304.986 151.214C299.29 168.222 296.441 177.622 296.441 179.412C296.441 181.121 296.93 181.976 297.906 181.976C298.964 181.976 300.307 181.447 301.935 180.389C303.644 179.249 308.486 174.896 316.461 167.327C324.436 159.677 329.238 155.161 330.865 153.777Z" stroke="white" stroke-width="6" mask="url(#path-1-outside-1)"/>
<path d="M433.16 153.777V167.449C420.221 180.633 408.746 191.131 398.736 198.943C388.808 206.674 382.175 210.54 378.839 210.54C372.735 210.54 369.684 207.122 369.684 200.286C369.684 193.45 371.189 185.312 374.2 175.872C377.293 166.351 380.344 157.765 383.355 150.115C386.448 142.384 387.994 137.216 387.994 134.612C387.994 132.008 387.506 130.096 386.529 128.875C385.634 127.654 384.535 127.044 383.233 127.044C378.595 127.044 373.59 130.299 368.219 136.81C362.848 143.239 358.046 151.051 353.814 160.247C345.025 179.29 339.247 194.874 336.48 207H313.165C313.246 198.211 315.729 183.644 320.611 163.299C325.494 142.954 329.848 127.939 333.673 118.255C335.219 114.349 337.416 111.744 340.265 110.442C343.194 109.14 347.101 108.489 351.983 108.489H360.162C354.221 128.997 349.827 143.768 346.979 152.801C352.431 142.628 360.325 132.293 370.66 121.795C375.706 116.749 381.199 112.599 387.14 109.344C393.08 106.089 398.696 104.461 403.985 104.461C411.961 104.461 415.948 109.222 415.948 118.743C415.948 123.3 413.059 134.124 407.281 151.214C401.585 168.222 398.736 177.622 398.736 179.412C398.736 181.121 399.225 181.976 400.201 181.976C401.259 181.976 402.602 181.447 404.229 180.389C405.938 179.249 410.781 174.896 418.756 167.327C426.731 159.677 431.533 155.161 433.16 153.777Z" stroke="white" stroke-width="6" mask="url(#path-1-outside-1)"/>
<path d="M436.822 210.54C427.057 210.54 421.035 203.663 418.756 189.91C418.268 186.574 418.023 183.115 418.023 179.534C418.023 170.664 420.221 161.712 424.615 152.679C429.01 143.646 434.788 135.589 441.949 128.509C449.192 121.429 457.818 115.651 467.828 111.175C477.919 106.699 488.214 104.461 498.712 104.461C503.839 104.461 510.675 105.804 519.22 108.489C519.138 109.059 518.325 112.802 516.778 119.72C515.232 126.556 513.686 133.554 512.14 140.716C507.908 160.328 505.792 172.495 505.792 177.215C505.792 181.935 507.013 184.295 509.454 184.295C514.825 184.295 527.276 173.96 546.808 153.289V166.961C534.438 179.738 522.638 190.195 511.407 198.333C500.258 206.471 492.812 210.54 489.068 210.54C482.883 210.54 479.791 205.21 479.791 194.549C479.791 191.049 480.117 187.103 480.768 182.708C474.908 190.358 468.072 196.909 460.26 202.361C452.529 207.814 444.716 210.54 436.822 210.54ZM444.024 172.698C444.024 184.905 448.012 191.009 455.987 191.009C459.405 191.009 463.596 189.218 468.561 185.638C473.606 182.057 478.163 178.11 482.232 173.797L496.271 113.738C487.481 113.738 478.977 116.871 470.758 123.138C462.538 129.404 456.028 137.094 451.227 146.209C446.425 155.324 444.024 164.153 444.024 172.698Z" stroke="white" stroke-width="6" mask="url(#path-1-outside-1)"/>
</g>
<defs>
<clipPath id="clip0">
<rect width="594" height="235" fill="white"/>
</clipPath>
</defs>
</svg>
